<?xml version="1.0" encoding="UTF-8"?>
<svg viewBox="0 0 590.5838 233.88252" xmlns="http://www.w3.org/2000/svg">
 <defs>
  <filter id="a">
   <feGaussianBlur result="result91" stdDeviation="5"/>
   <feComposite in="SourceGraphic" in2="result91"/>
  </filter>
  <filter id="b" x="-.2673" y="-.648" width="1.5346" height="2.2959">
   <feGaussianBlur stdDeviation="18"/>
  </filter>
  <radialGradient id="c" cx="-511.08" cy="566.6" r="183.28" gradientTransform="matrix(.57636 0 0 .37144 646.67 471.89)" gradientUnits="userSpaceOnUse">
   <stop stop-color="#7e7e7e" offset="0"/>
   <stop stop-color="#7e7e7e" offset="1"/>
  </radialGradient>
 </defs>
 <g transform="translate(-140.71 -593.73)">
  <path transform="matrix(1.2214 0 0 .13359 482.37 784.92)" d="m-74.751 203.01c0 18.41-36.181 33.335-80.812 33.335s-80.812-14.925-80.812-33.335 36.181-33.335 80.812-33.335 80.812 14.925 80.812 33.335z" fill="#929292" fill-opacity=".599" filter="url(#b)" stroke="#000"/>
  <path transform="matrix(.57636 0 0 .57636 646.67 355.79)" d="m-543.57 722.19 67.3-2.4786c7.1695-0.2641 9.0774 5.9811 7.3733 12.95-5.5931 22.873 8.3457 51.679 36.76 51.881 7.1742 0.051-7.291 8.4182-14.465 8.4045l-132.42-0.2525c-7.1744-0.0137-22.695-6.1882-15.728-7.8994 15.932-3.913 53.967-9.9706 44.425-50.274-1.6528-6.9814 6.7536-12.33 6.7536-12.33z" fill="#fff" filter="url(#a)" stroke="#000"/>
  <path d="m386.33 805.97c-7.7322-5.4722-10.778-12.747-12.36-20.585 3.4657-7.797-42.849-3.461-44.047-2.3633 22.263-5.6235 46.392 14.991 50.228 23.258-11.455-2.5602 5.3568 2.9669 6.179-0.3096z" fill="#e9e9e9" fill-opacity=".733"/>
  <path transform="matrix(.57636 0 0 .57636 646.67 355.79)" d="m-687.63 431.24h351.46a16.635 16.635 0 0 1 16.635 16.635v276.14a16.635 16.635 0 0 1 -16.635 16.635h-351.46a16.635 16.635 0 0 1 -16.635 -16.635v-276.14a16.635 16.635 0 0 1 16.635 -16.635" fill="#fff" filter="url(#a)" stroke="#000"/>
  <path d="m254.04 614.56h196.12a7.2897 7.2897 0 0 1 7.2897 7.2897v121.01a7.2897 7.2897 0 0 1 -7.2897 7.2897h-196.12a7.2897 7.2897 0 0 1 -7.2897 -7.2897v-121.01a7.2897 7.2897 0 0 1 7.2897 -7.2897" fill="url(#c)" stroke="#000" stroke-width=".5683"/>
  <path transform="matrix(.57636 0 0 .57636 646.67 355.79)" d="m-584.42 784.22h146.91c12.973 0 23.417 0.9462 23.417 2.1216v6.7568c0 1.1754-10.444 2.1216-23.417 2.1216h-146.91c-12.973 0-23.417-0.9462-23.417-2.1216v-6.7568c0-1.1754 10.444-2.1216 23.417-2.1216z" fill="#fff" filter="url(#a)" stroke="#000"/>
  <path transform="matrix(.57636 0 0 .57636 651.28 616.51)" d="m-515.43-12.279c0 2.3013-1.8656 4.1669-4.1669 4.1669s-4.1669-1.8656-4.1669-4.1669 1.8656-4.1669 4.1669-4.1669 4.1669 1.8656 4.1669 4.1669z" stroke="#000"/>
  <path transform="matrix(1.2214 0 0 .13359 747.17 790.07)" d="m-74.751 203.01c0 18.41-36.181 33.335-80.812 33.335s-80.812-14.925-80.812-33.335 36.181-33.335 80.812-33.335 80.812 14.925 80.812 33.335z" fill="#929292" fill-opacity=".599" filter="url(#b)" stroke="#000"/>
  <path transform="matrix(.57636 0 0 .57636 -350.76 222.61)" d="m1486.6 668.01h351.46a16.635 16.635 0 0 1 16.635 16.635v276.14a16.635 16.635 0 0 1 -16.635 16.635h-351.46a16.635 16.635 0 0 1 -16.635 -16.635v-276.14a16.635 16.635 0 0 1 16.635 -16.635" fill="#fff" filter="url(#a)" stroke="#000" stroke-width=".9994"/>
  <path d="m609.71 645.18c-1.0579 9e-3 -2.7747 1.6517-4.1101 4.0279-1.5263 2.7156-1.9769 5.3603-1.007 5.9054s2.9931-1.216 4.5193-3.9316 1.9769-5.3583 1.007-5.9034c-0.1212-0.0682-0.258-0.0996-0.4091-0.0983zm-8.4309 10.507c-4.461 0.0244-7.7649 5.7698-7.7649 10.28 0 5.7734 5.7806 11.004 11.554 11.004 4.7358 0 11.051-2.8977 8.8724-14.868-3.0288-0.3476-3.3213-1.1412-1.9963-3.5766-5.2562-4.3062-6.4233-2.8135-10.665-2.8406z" stroke="#000" stroke-width=".6148"/>
  <path transform="matrix(.57636 0 0 .57636 906.96 619.8)" d="m-515.43-12.279c0 2.3013-1.8656 4.1669-4.1669 4.1669s-4.1669-1.8656-4.1669-4.1669 1.8656-4.1669 4.1669-4.1669 4.1669 1.8656 4.1669 4.1669z" stroke="#000"/>
  <path d="m624.39 720.33-38.812 9e-3s-4.8276 3.1012-3.875 7.125c0.4121 1.7409 0.6708 56.942 0.7927 58.469 1.4493 18.145-16.407 21.717-25.324 23.821-5.0397 0.177-8.625 0.6044-8.625 1.125v3.9063c0 0.6774 6.0228 1.2188 13.5 1.2188h84.656c7.4772 0 13.5-0.5413 13.5-1.2188v-3.9063c0-0.663-5.7762-1.1962-13.031-1.2188-12.449-1.5117-19.36-13.006-19.232-24.084 0.0221-1.9084 0.2531-55.947 0.7007-57.778 0.9822-4.0167-0.1178-7.6209-4.25-7.4688z" fill="#fff" filter="url(#a)" stroke="#000" stroke-width=".5764"/>
  <path d="m564.703,779.7498h8.9927a.2658,.4487 0 0,1 .2658.4487v1.1077a.2658,.4487 0 0,1 -.2658.4487h-8.9927a.2658,.4487 0 0,1 -.2658-.4487v-1.1077a.2658,.4487 0 0,1 .2658-.4487" fill="#999" stroke="#000" stroke-width=".276"/>
  <path d="m552.703,779.7498h8.9927a.2658,.4487 0 0,1 .2658.4487v1.1077a.2658,.4487 0 0,1 -.2658.4487h-8.9927a.2658,.4487 0 0,1 -.2658-.4487v-1.1077a.2658,.4487 0 0,1 .2658-.4487" fill="#999" stroke="#000" stroke-width=".276"/>
  <path d="m540.703,779.7498h8.9927a.2658,.4487 0 0,1 .2658.4487v1.1077a.2658,.4487 0 0,1 -.2658.4487h-8.9927a.2658,.4487 0 0,1 -.2658-.4487v-1.1077a.2658,.4487 0 0,1 .2658-.4487" fill="#999" stroke="#000" stroke-width=".276"/>
  <path d="m528.703,779.7498h8.9927a.2658,.4487 0 0,1 .2658.4487v1.1077a.2658,.4487 0 0,1 -.2658.4487h-8.9927a.2658,.4487 0 0,1 -.2658-.4487v-1.1077a.2658,.4487 0 0,1 .2658-.4487" fill="#999" stroke="#000" stroke-width=".276"/>
  <path d="m500.49 612.07h0.8605c0.9254 0-0.8173 156.88 2.7164 160.84-2.7848 0.7964 20.764 8.6883 18.719 9.5881-23.148 5.5137-21.381-3.1047-21.792-3.1047h-0.8605c-0.9254 0-1.6704-4.2761-1.6704-9.5876v-146.28c0-5.3116 1.1021-11.463 2.0275-11.463z" fill="#e9e9e9" fill-opacity=".733"/>
  <g transform="matrix(.43138 0 0 1 284.66 0)" fill="#fff" stroke="#000">
   <path d="m499.1997,646.2241c-.0448-.0208 7.1755.9044 8.8192,11.1117 0,0-.4509,46.0141.0785,69.6374-.3191,8.941-8.937,7.5761-8.937,7.5761-.081.0687-.1654-.2001-.1654-.4487 0,0 .0392-58.9376.0392-87.4278 0-.2486.2534-.4078.1654-.4487z" stroke-width=".1"/>
   <path d="m498.6282,646.4919c-.0448-.0208 7.1755.9044 8.8192,11.1117 0,0-.4509,46.0141.0785,69.6374-.3191,8.941-8.937,7.5761-8.937,7.5761-.081.0687-.1654-.2001-.1654-.4487 0,0 .0392-58.9376.0392-87.4278 0-.2486.2534-.4078.1654-.4487z" stroke-width=".3155"/>
  </g>
  <path d="m499.1574,693.2845a.1421,.4487 0 0,1 .1421.4487v3.4588a.1421,.4487 0 0,1 -.1421.4487 .1421,.4487 0 0,1 -.1421-.4487v-3.4588a.1421,.4487 0 0,1 .1421-.4487" fill="#fff" stroke="#000" stroke-width=".1"/>
  <path d="m713.13 612.93h0.7822c0.8411 0 1.5183 4.2761 1.5183 9.5877v146.28c0 8.1687-0.1703 10.732-0.9826 11.909-1.8786 4.1784-16.993 4.704-17.594 1.5717 11.647 2.9333 14.758-9.4382 14.758-13.481v-146.28c0-5.3116 0.6772-9.5877 1.5183-9.5877z" fill="#e9e9e9" fill-opacity=".733"/>
  <path d="m585.93 723.04h0.8874c0.9543 0 1.7291 2.0721 1.7226 4.6459l-0.1786 70.524c2.4085 12.214-35.112 16.644-36.969 13.318 30.179 1.7785 33.015-18.324 32.994-20.282l-0.7143-65.346c-0.0281-2.5737 1.304-2.8602 2.2583-2.8602z" fill="#e9e9e9" fill-opacity=".733"/>
  <path d="m354.3879,756.2455c-.6499.006-1.7044,1.0146-2.5247,2.4742-.9376,1.6681-1.2144,3.2927-.6186,3.6275s1.8386-.7469 2.7761-2.4151 1.2143-3.2915.6185-3.6263c-.0744-.0419-.1585-.0612-.2513-.0604zm-5.1789,6.4542c-2.7403.015-4.7698,3.5443-4.7698,6.3149 0,3.5465 3.5509,6.7597 7.0974,6.7597 2.9091,0 6.7886-1.78 5.4501-9.1327-1.8605-.2135-2.0402-.701-1.2263-2.197-3.2288-2.6452-3.9457-1.7283-6.5514-1.7449z" stroke="#000" stroke-width=".3777"/>
 </g>
</svg>
