<?xml version="1.0" encoding="UTF-8" standalone="no"?>
<svg
   xmlns:dc="http://purl.org/dc/elements/1.1/"
   xmlns:cc="http://creativecommons.org/ns#"
   xmlns:rdf="http://www.w3.org/1999/02/22-rdf-syntax-ns#"
   xmlns:svg="http://www.w3.org/2000/svg"
   xmlns="http://www.w3.org/2000/svg"
   xmlns:xlink="http://www.w3.org/1999/xlink"
   viewBox="0 0 1024 640"
   height="640"
   width="1024"
   id="svg10"
   version="1.1">
  <metadata
     id="metadata16">
    <rdf:RDF>
      <cc:Work
         rdf:about="">
        <dc:format>image/svg+xml</dc:format>
        <dc:type
           rdf:resource="http://purl.org/dc/dcmitype/StillImage" />
        <dc:title></dc:title>
      </cc:Work>
    </rdf:RDF>
  </metadata>
  <defs
     id="defs14" />
  <image
     xlink:href="귀여운 배경.jpg"
     width="1024"
     height="640"
     preserveAspectRatio="none"
     id="image18"
     x="0"
     y="0" />
  <g
     id="g20">
    <path
       id="path36"
       d="M 0,320 V 0 h 512 512 V 320 640 H 512 0 Z"
       style="fill:#fdfdfd" />
    <path
       id="path34"
       d="m 164,638.12244 c 0,-1.03265 0.6163,-2.38904 1.36956,-3.01419 0.75326,-0.62514 2.02699,-3.04274 2.83051,-5.37244 3.56872,-10.34696 4.80095,-14.66426 4.81499,-16.87002 0.0205,-3.22801 3.7226,-12.74706 8.30937,-21.36579 0.58541,-1.1 2.23941,-4.25 3.67557,-7 4.10374,-7.85799 5.31603,-9.79172 8.14989,-13 1.45744,-1.65 3.49731,-4.575 4.53304,-6.5 1.03574,-1.925 3.55579,-5.1425 5.60012,-7.15 2.30785,-2.26628 3.71695,-4.58967 3.71695,-6.12868 0,-1.80796 0.80692,-2.81292 2.98204,-3.71388 1.64012,-0.67936 3.70464,-0.95791 4.58783,-0.619 0.99624,0.38229 2.29543,-0.23548 3.42257,-1.62743 1.73536,-2.14308 1.90302,-2.16559 3.74091,-0.50232 1.08818,0.98478 3.50798,1.74131 5.56971,1.74131 3.03923,0 3.90361,-0.49897 5.19694,-3 1.82578,-3.53067 2.80915,-3.68858 6.22713,-1 3.01115,2.36857 6.15317,2.55777 8.83174,0.5318 1.06762,-0.8075 3.16477,-1.4825 4.66034,-1.5 1.49556,-0.0175 4.45096,-0.93444 6.56756,-2.03768 2.99842,-1.56286 4.88854,-1.8633 8.55809,-1.36033 2.59036,0.35505 4.94901,1.03269 5.24146,1.50588 0.86545,1.40033 4.41368,0.97982 4.41368,-0.52309 0,-0.76089 1.10244,-1.59417 2.44988,-1.85175 1.89175,-0.36163 2.54418,0.0105 2.86381,1.63342 0.22767,1.15596 0.4756,-1.27325 0.55096,-5.39825 0.20358,-11.14346 1.95615,-28.07702 4.19163,-40.5 C 289.2981,481.04176 297,432.7699 297,431.1775 c 0,-0.5735 -0.97825,-1.35321 -2.17389,-1.73269 -3.82544,-1.21415 -11.94005,-9.72755 -14.9441,-15.67854 -3.52314,-6.97931 -5.49936,-15.30852 -6.43478,-27.12082 l -0.7012,-8.85455 -10.3194,-8.51524 c -19.40326,-16.01095 -21.5427,-23.5845 -14.50463,-51.34582 5.67696,-22.3925 16.36348,-52.93051 22.85436,-65.30911 1.98398,-3.7836 5.7723,-9.2482 8.41849,-12.14355 4.92798,-5.392 10.48957,-8.54267 35.05515,-19.85894 5.3625,-2.47026 9.75,-4.93929 9.75,-5.48672 0,-1.37617 -3.97682,-3.99637 -14.37606,-9.47196 C 289.88333,195.26539 276.79892,183.91104 266.2262,168 254.66254,150.59766 249.97719,136.03674 249.26655,115.29358 248.59801,95.779502 250.90343,85.718056 260.21767,67.5 272.8472,42.797461 293.09623,26.980926 317,23.147281 c 13.39238,-2.147846 47.09711,-1.446251 58.2433,1.212388 20.62613,4.919835 43.74092,24.697414 56.15743,48.049656 8.95825,16.84815 12.18082,41.007525 8.23041,61.702685 -3.99251,20.91566 -12.53639,37.43569 -28.81919,55.72338 -4.57157,5.13446 -9.8791,11.15314 -11.79451,13.37484 l -3.48257,4.03946 7.48257,-0.87484 c 4.11541,-0.48117 13.33256,-0.83816 20.48256,-0.79331 18.24192,0.11441 23.55739,1.84941 45.5,14.85145 l 9.5,5.62921 1.13149,-5.63389 c 2.65192,-13.2044 11.93509,-17.51228 31.05181,-14.40966 4.87141,0.79062 8.26608,0.64106 16,-0.70492 13.64046,-2.37394 27.05288,-2.39928 28.76575,-0.0543 1.17742,1.61189 8.8261,3.53069 14.05095,3.52492 2.33017,-0.003 13.42773,3.62358 18.5,6.04491 5.82542,2.78087 11.86973,8.95946 12.60645,12.88651 l 0.65824,3.50874 87.11766,-0.34189 c 80.19877,-0.31474 87.36506,-0.20803 90.23281,1.34372 6.55629,3.54761 6.14971,-5.22154 6.53507,140.94995 l 0.34977,132.67624 -2.06453,2.82376 c -4.72169,6.45808 1.91896,6.04929 -117.43547,7.22903 -59.675,0.58985 -124.8125,1.35796 -144.75,1.70691 L 485,518.24669 v 4.23711 c 0,2.33041 0.28114,6.28826 0.62476,8.79523 0.54887,4.00441 0.88293,4.49856 2.75,4.06775 5.69007,-1.31293 11.10732,-1.52188 14.44302,-0.55708 2.02522,0.58577 7.43959,1.57784 12.03192,2.2046 8.19267,1.11813 8.42266,1.09128 12.22856,-1.42735 4.32568,-2.8626 5.92174,-3.20167 5.92174,-1.25803 0,0.71988 0.6753,2.18238 1.50067,3.25 1.47171,1.90368 1.53983,1.89485 3.53087,-0.45778 1.92076,-2.26958 2.10098,-2.30212 3.34301,-0.60354 0.89995,1.23075 2.14143,1.63697 3.94767,1.29168 1.99685,-0.38172 3.00885,0.0671 4.17937,1.85354 1.88449,2.8761 8.19731,3.25585 12.05922,0.72543 2.32427,-1.52292 2.6247,-1.51029 4.50265,0.18923 1.45655,1.31816 3.31348,1.75291 6.72438,1.57436 2.59169,-0.13567 6.38521,0.45417 8.43004,1.31077 5.33455,2.23467 7.13748,2.08996 5.77106,-0.46323 -1.90085,-3.55177 1.4183,-5.60342 4.01106,-2.47933 0.75964,0.91531 2.95124,1.5 5.62244,1.5 3.2245,0 4.37756,0.3951 4.37756,1.5 0,1.86373 5.04503,2.04739 6.86732,0.25 1.01585,-1.00197 1.56387,-0.85315 2.76183,0.75 1.32632,1.77493 1.62822,1.8259 2.68268,0.45296 1.52937,-1.9913 8.68817,-2.55513 8.68817,-0.68429 0,0.73223 -0.5625,1.90403 -1.25,2.60399 -1.0106,1.02891 0.28218,1.18685 6.75,0.82465 4.4,-0.2464 9.23292,-0.78068 10.73982,-1.18728 2.28969,-0.61783 2.87809,-0.36551 3.58143,1.53581 0.70961,1.91824 0.94156,2.01465 1.4788,0.61463 0.83325,-2.17141 3.32496,-2.12336 4.64254,0.0895 0.94076,1.58003 1.3098,1.43347 3.79969,-1.50901 3.10402,-3.66827 7.08242,-4.65047 5.2929,-1.30673 C 655.20378,549.35627 655.77642,551 658.8,551 c 1.54,0 3.23974,0.43974 3.77721,0.97721 0.53747,0.53747 3.59177,1.87675 6.78735,2.97619 3.28567,1.13044 6.67272,3.09557 7.79537,4.52279 2.40559,3.05822 3.94371,3.18876 5.63637,0.47838 1.08855,-1.74305 0.97628,-2.42823 -0.75945,-4.63486 C 679.60568,552.22899 679.40829,550 681.56574,550 684.0344,550 687,551.92923 687,553.53518 c 0,0.94778 1.01785,1.46482 2.88364,1.46482 2.09528,0 3.8716,1.09355 6.4974,4 4.10862,4.54776 5.204,4.88277 6.15615,1.88282 0.59415,-1.87198 1.2427,-2.06234 5.60002,-1.64366 3.09095,0.297 5.75466,1.24487 7.14542,2.54265 1.21955,1.13802 3.79237,2.21516 5.71737,2.39366 3.12854,0.29009 3.56563,0.69599 4.11836,3.82453 l 0.61836,3.5 0.13164,-3.25 c 0.10132,-2.50153 0.57725,-3.25 2.06654,-3.25 3.68838,0 7.00826,1.92534 7.63658,4.4288 0.69646,2.7749 3.36642,4.04307 6.45099,3.06407 1.11236,-0.35305 3.40315,-0.33866 5.09065,0.032 2.56894,0.56424 2.96165,1.02383 2.41351,2.82452 -1.19539,3.92696 -1.0432,5.07059 0.72337,5.43565 1.29518,0.26765 1.75,-0.28591 1.75,-2.1299 0,-3.43818 0.974,-5.65511 2.48454,-5.65511 0.69882,0 1.83077,-0.675 2.51546,-1.5 1.55005,-1.8677 6,-1.98265 6,-0.15499 0,0.73976 -0.9,2.1595 -2,3.15499 -2.64671,2.39524 -2.62858,5.5 0.0321,5.5 1.11766,0 3.64762,-0.675 5.62212,-1.5 4.43366,-1.8525 5.46208,-1.86664 7.86688,-0.10821 1.62978,1.19172 1.70864,1.62644 0.54863,3.02416 -0.74511,0.89781 -1.17813,1.73401 -0.96225,1.85822 4.48491,2.58049 5.08984,2.69008 9.45256,1.71237 5.63527,-1.26289 6.74563,-0.65483 5.893,3.22715 -0.5064,2.30565 -0.34227,2.90966 0.69146,2.54457 0.74551,-0.2633 1.26434,-1.35102 1.15294,-2.41717 -0.13502,-1.29226 0.70519,-2.28107 2.52049,-2.96627 3.86562,-1.45911 5.18205,-0.68481 5.18205,3.048 0,2.50281 0.5784,3.51969 2.5,4.39523 2.6993,1.22988 3.43004,4.18195 1.03518,4.18195 -1.45709,0 -3.53518,2.90052 -3.53518,4.93426 0,1.991 2.84645,1.0764 4.94228,-1.58801 1.8366,-2.33486 2.38606,-2.51768 4.57258,-1.52143 1.6904,0.7702 2.48514,1.93865 2.48514,3.65374 0,1.70645 0.54948,2.52144 1.7,2.52144 1.32222,0 1.43333,-0.26667 0.5,-1.2 -2.78165,-2.78165 -0.79774,-5.8 3.81224,-5.8 1.13261,0 1.97243,-0.84116 2.16821,-2.17167 0.36437,-2.47627 2.81955,-3.77807 2.81955,-1.495 0,0.825 -0.55298,1.68433 -1.22884,1.90962 -0.89632,0.29877 -0.74293,1.15119 0.56691,3.15025 2.1971,3.35321 0.99029,5.34127 -3.52015,5.799 l -3.03314,0.3078 2.55986,2.75 c 3.8501,4.13607 10.27295,3.39723 11.86013,-1.36432 0.26817,-0.80451 1.36201,-0.64395 3.64074,0.53443 3.66317,1.8943 5.08343,4.38774 3.17209,5.56901 -1.49335,0.92294 -0.49862,3.01088 1.43443,3.01088 0.7337,0 1.57673,0.63257 1.87341,1.4057 0.29668,0.77314 1.9353,1.7123 3.64138,2.08701 1.75774,0.38607 4.06208,1.9869 5.31757,3.69413 l 2.21561,3.01281 0.5,-4.34982 c 0.46209,-4.02001 0.72747,-4.35906 3.5,-4.47156 1.65,-0.067 3.87301,-0.48541 4.94003,-0.92991 1.25304,-0.52199 2.08141,-0.38403 2.33929,0.38959 0.21959,0.65877 1.03407,1.83259 1.80997,2.60848 0.77589,0.77589 1.41071,2.1876 1.41071,3.13713 0,1.61001 -0.12347,1.61468 -1.83115,0.0693 C 861.28868,620.95127 860,621.3451 860,623.62121 c 0,0.70834 -1.125,2.41288 -2.5,3.78788 -2.82878,2.82878 -3.26566,6.08312 -0.93662,6.97686 C 858.44003,635.10609 857.52879,637 855.30565,637 853.4102,637 849,632.45911 849,630.5075 c 0,-1.81211 -1.44103,-2.65923 -3.30612,-1.94352 -1.94622,0.74683 -2.72559,6.16481 -1.08291,7.52811 0.69858,0.57978 1.02375,1.69624 0.7226,2.48102 C 844.86081,639.8051 798.29026,640 504.39301,640 172.06624,640 164,639.95551 164,638.12244 Z M 836,624 c 0,-0.55 -0.4645,-1 -1.03222,-1 -0.56773,0 -1.4392,-1.0125 -1.93662,-2.25 -0.8894,-2.21271 -0.90544,-2.20718 -0.96777,0.33333 -0.0349,1.42084 0.23661,2.88334 0.60328,3.25 C 833.68914,625.35581 836,625.12472 836,624 Z m -66,-39.5 c 0.69443,-0.83674 0.80272,-1.5 0.24489,-1.5 -0.55,0 -1.5602,0.675 -2.24489,1.5 -0.69443,0.83674 -0.80272,1.5 -0.24489,1.5 0.55,0 1.5602,-0.675 2.24489,-1.5 z m -23,-2.61803 c 0,-0.55 -0.45,-0.72189 -1,-0.38197 -0.55,0.33992 -1,1.06803 -1,1.61803 0,0.55 0.45,0.72189 1,0.38197 0.55,-0.33992 1,-1.06803 1,-1.61803 z m -54.21814,-22.70891 c 0.30736,-0.93523 -0.38509,-1.23043 -2.34576,-1 -1.53002,0.17982 -2.97811,0.92406 -3.21796,1.65388 -0.30736,0.93523 0.38509,1.23043 2.34576,1 1.53002,-0.17982 2.97811,-0.92406 3.21796,-1.65388 z M 368.99995,535 c 0.47805,-2.06399 1.26282,-2.55631 4.49966,-2.82289 2.55344,-0.2103 4.28446,0.17468 4.96397,1.10397 0.57384,0.78478 3.68729,1.75721 6.91877,2.16095 4.7414,0.5924 6.52015,0.38688 9.21575,-1.06479 3.29686,-1.77548 3.38225,-1.76788 6.56367,0.58424 2.10999,1.55999 3.35905,1.97606 3.6162,1.2046 0.21607,-0.6482 0.79926,-0.92737 1.29599,-0.62037 0.49672,0.30699 0.63514,-0.14021 0.3076,-0.99377 -0.69604,-1.81384 1.22868,-2.03083 5.06753,-0.57129 2.40632,0.91487 2.53804,0.81627 1.96417,-1.47021 -0.33832,-1.34797 -1.14252,-4.82676 -1.78711,-7.73065 l -1.17198,-5.27979 -25.15266,-0.26701 -25.15265,-0.26702 -1.02299,5.26702 c -1.70544,8.78071 -1.70591,9.18697 -0.0124,10.88053 3.72377,3.72377 9.01171,3.66305 9.88643,-0.11352 z M 702,279 c 0,-0.55 -0.42344,-1 -0.94098,-1 -0.51754,0 -1.2191,0.45 -1.55902,1 -0.33992,0.55 0.0835,1 0.94098,1 0.85746,0 1.55902,-0.45 1.55902,-1 z m -11.22917,-5.8125 c 0.23746,-0.71237 -0.63779,-1.1875 -2.1875,-1.1875 -2.68148,0 -3.51593,1.46029 -1.33333,2.33333 1.72888,0.69156 3.05189,0.26099 3.52083,-1.14583 z m 30.04872,-0.42728 c -0.34578,-2.42361 -3.39723,-3.58254 -5.05855,-1.92122 -1.67944,1.67944 -0.0232,4.161 2.77717,4.161 2.12219,0 2.54211,-0.41226 2.28138,-2.23978 z M 368,273.58179 C 368,271.79592 366.47174,270 364.95203,270 c -2.10493,0 -3.35835,1.53354 -2.45203,3 0.58578,0.94782 5.5,1.46764 5.5,0.58179 z m 336.78942,-5.40757 c 1.60492,-4.60386 -1.04378,-7.56522 -4.6976,-5.25213 -1.19536,0.75674 -1.15049,1.43451 0.29692,4.48469 2.05511,4.33083 3.09525,4.51222 4.40068,0.76744 z M 696,268.5 c 1.04007,-1.2532 0.89568,-1.5 -0.87756,-1.5 -1.21995,0 -2.12244,0.63782 -2.12244,1.5 0,0.825 0.3949,1.5 0.87756,1.5 0.48265,0 1.43775,-0.675 2.12244,-1.5 z m 54,-0.55902 C 750,267.42344 749.55,267 749,267 c -0.55,0 -1,0.70156 -1,1.55902 0,0.85746 0.45,1.2809 1,0.94098 0.55,-0.33992 1,-1.04148 1,-1.55902 z M 394.75047,264.75 C 394.12044,262.85781 391,262.5888 391,264.42668 c 0,0.92763 0.855,1.57332 2.08333,1.57332 1.22198,0 1.91126,-0.51682 1.66714,-1.25 z M 681,259.55902 c 0,-3.34356 -1.45689,-3.96098 -4.5556,-1.93063 l -2.61208,1.7115 2.33384,1.29462 C 679.65642,262.57061 681,262.27167 681,259.55902 Z M 731,260 c 0,-0.55 -0.45,-1 -1,-1 -0.55,0 -1,0.45 -1,1 0,0.55 0.45,1 1,1 0.55,0 1,-0.45 1,-1 z m 116.75,354.9199 c -2.39704,-1.39615 -2.19655,-2.39541 0.75,-3.73795 2.36206,-1.07622 2.5,-0.97473 2.5,1.83949 0,3.19446 -0.51171,3.49337 -3.25,1.89846 z M 750.03518,567.06574 C 748.49706,564.19173 748.76955,563 750.96482,563 752.8347,563 755,565.64775 755,567.93426 c 0,1.83821 -3.87942,1.15957 -4.96482,-0.86852 z"
       style="fill:#f7f2e7" />
    <path
       id="path32"
       d="m 181.99505,638.75 c -0.003,-0.6875 0.7094,-3.5 1.58248,-6.25 5.24857,-16.53168 8.05647,-23.5 9.46939,-23.5 0.52419,0 0.95308,-0.85742 0.95308,-1.90539 0,-1.04796 1.575,-3.79054 3.5,-6.09461 1.925,-2.30407 3.50689,-4.70915 3.51531,-5.34461 0.0252,-1.90366 1.57722,-3.77255 3.34876,-4.03256 0.91512,-0.13431 3.34507,-1.80012 5.39989,-3.7018 4.42059,-4.09114 9.30279,-6.92103 11.94033,-6.92103 1.04264,0 2.4615,-0.5625 3.15302,-1.25 0.75414,-0.74976 3.93048,-1.25 7.93695,-1.25 6.00861,0 6.68094,-0.20091 6.69269,-2 0.01,-1.48771 0.78148,-2.074 3.01305,-2.2889 4.56178,-0.43929 7.59478,-0.35338 12.14802,0.34411 2.77286,0.42476 5.25927,0.13439 7.5,-0.87586 1.84359,-0.83121 4.92698,-1.77244 6.85198,-2.09164 11.2971,-1.87325 10.88649,-1.70151 11.86919,-4.96459 1.99258,-6.61642 2.20763,-8.81475 3.14245,-32.12312 0.75697,-18.87392 1.60577,-27.73777 3.97402,-41.5 2.48951,-14.46684 7.01694,-42.37401 9.6025,-59.19001 0.535,-3.47949 0.34899,-3.80281 -3.2604,-5.66747 -11.92633,-6.16131 -18.66479,-19.9677 -20.17664,-41.33984 L 273.5,377.59817 263.20442,368.93158 c -5.66258,-4.76663 -11.38711,-10.14607 -12.7212,-11.95432 -4.08683,-5.53938 -5.82205,-12.36377 -5.18302,-20.38414 1.33025,-16.69605 18.44209,-70.10701 27.42237,-85.59312 7.03536,-12.13216 12.41247,-16.15917 35.63688,-26.68908 7.7773,-3.52622 14.77689,-7.04113 15.55465,-7.81092 2.10849,-2.08691 0.36715,-3.63766 -10.75119,-9.57443 -15.19587,-8.11401 -23.01713,-13.56623 -32.00401,-22.31006 -26.9832,-26.25345 -38.05939,-64.64056 -28.0602,-97.249102 4.28918,-13.98752 15.28632,-32.754061 23.85491,-40.708225 C 280.79066,43.096275 291.88577,39 297.69646,39 c 2.42157,0 5.68878,-0.664976 7.26046,-1.477724 1.98559,-1.026786 6.4715,-1.525299 14.70034,-1.633627 21.36386,-0.281244 40.77048,0.26141 44.84274,1.253906 2.2,0.536187 6.25,1.114104 9,1.28426 15.2494,0.943557 32.33523,6.56912 40.10054,13.203227 13.87018,11.849668 22.83853,29.477293 26.09684,51.294338 2.14407,14.3563 0.70698,29.12082 -4.28925,44.0674 -6.16019,18.42869 -13.48079,29.9735 -31.36005,49.45583 -5.33851,5.81716 -8.72375,10.27672 -8.1992,10.80127 0.52454,0.52454 4.07304,0.45116 8.59462,-0.17774 10.62014,-1.47712 25.75591,-1.31209 33.6785,0.36721 7.51193,1.59226 14.71129,4.99181 30.02208,14.17646 5.85425,3.51186 10.85379,6.38519 11.1101,6.38519 0.25631,0 0.7223,-2.48313 1.03553,-5.51808 0.73087,-7.08142 3.75093,-12.0102 8.27377,-13.50287 3.06458,-1.0114 3.68492,-0.91079 5.20775,0.84466 0.95083,1.09606 4.10629,4.05912 7.01215,6.58456 8.26309,7.18136 10.5821,5.70856 5.55496,-3.52795 -1.46391,-2.68969 -2.39667,-5.15532 -2.07281,-5.47918 0.32386,-0.32387 3.88411,-0.15841 7.91166,0.36767 5.75647,0.75192 8.99637,0.61301 15.14691,-0.64942 7.29999,-1.49837 7.88748,-1.49271 8.77016,0.0846 0.52034,0.92979 2.10199,3.06426 3.5148,4.74329 l 2.56873,3.05276 h 11.07919 c 6.09356,0 14.04105,0.45757 17.66111,1.01681 25.86223,3.99535 26.17181,4.1463 29.51827,14.39341 0.60968,1.86688 2.58254,1.89665 86.9627,1.312 79.76202,-0.55264 86.59099,-0.46963 89.64881,1.08978 1.82048,0.9284 4.10898,2.813 5.08557,4.188 1.67148,2.3534 1.81249,10.27006 2.40456,135 0.62739,132.17394 0.62392,132.50788 -1.41031,135.70145 -4.13451,6.49085 1.2626,6.09996 -101.24205,7.33267 C 630.52354,515.6518 565.1,516.45931 536.5,516.82858 l -52,0.67142 0.2452,11 c 0.2633,11.81152 2.41335,26.55036 4.65609,31.91799 1.34828,3.22688 1.50608,3.29733 6.34488,2.83238 5.10388,-0.49042 9.80523,1.04843 8.69436,2.84585 -0.39722,0.64272 1.15791,0.76063 4.38542,0.33248 3.73035,-0.49485 5.56019,-0.27165 7.20227,0.87852 1.21076,0.84804 2.78411,1.31829 3.49633,1.04499 0.71221,-0.27331 2.7897,0.27605 4.61662,1.22079 2.27183,1.17481 6.32672,1.8193 12.82936,2.03911 7.48629,0.25306 9.76834,0.67786 10.73369,1.99806 0.98055,1.34098 2.23406,1.55729 6.2609,1.08037 2.76918,-0.32797 5.03488,-0.23874 5.03488,0.19829 0,0.43703 1.8,1.33389 4,1.99302 2.33799,0.70048 4,1.8168 4,2.68667 0,1.21121 1.41057,1.43642 7.57782,1.20986 6.30494,-0.23162 7.79596,0.0193 8.87648,1.49383 1.03032,1.40601 1.82071,1.57373 3.82504,0.81168 1.38951,-0.52829 2.82165,-1.43828 3.18254,-2.02221 1.06178,-1.71799 3.53812,-1.21534 3.53812,0.71818 0,1.21046 1.59956,2.40058 5,3.72014 5.03408,1.95351 5.93641,3.16359 3.88713,5.21287 -1.33417,1.33417 -0.34086,3.28713 1.67189,3.28713 0.79254,0 1.44098,-0.9313 1.44098,-2.06955 0,-3.3809 4.41474,-2.1714 4.81642,1.31955 0.33808,2.93818 2.8112,3.72238 4.96063,1.57295 0.90273,-0.90273 1.5461,-0.29379 2.76059,2.61288 1.71663,4.10848 0.89235,3.95928 10.19411,1.84522 1.73359,-0.39401 2.45905,0.0906 3.25,2.17096 0.56004,1.473 1.01825,3.77389 1.01825,5.11309 0,1.33919 0.585,2.4349 1.3,2.4349 2.00328,0 3.7,-2.1553 3.7,-4.7 0,-1.265 0.38026,-2.3 0.84501,-2.3 1.19123,0 4.15499,3.42791 4.15499,4.80569 0,2.01592 5.11168,4.58379 9.64944,4.84743 5.62486,0.3268 6.35056,0.83027 6.35056,4.4059 0,2.16539 0.47469,2.94098 1.8,2.94098 0.99,0 2.2275,-0.39049 2.75,-0.86776 1.39138,-1.27094 7.288,-2.20338 7.87968,-1.24603 0.27897,0.45139 0.005,2.15068 -0.60836,3.77621 -1.40128,3.71243 -0.26882,10.22863 1.92388,11.07005 0.89917,0.34504 1.81185,0.0964 2.02816,-0.55256 0.21632,-0.64895 0.80581,-1.17991 1.30997,-1.17991 1.02709,0 1.24692,5.97581 0.30968,8.41821 -0.64821,1.68922 -3.39301,2.21202 -3.39301,0.64626 0,-1.06892 -14.26155,-0.70042 -17.85236,0.46129 -1.57604,0.50988 -2.62496,0.31996 -3.17838,-0.57551 -0.66087,-1.0693 -1.34964,-1.09797 -3.4447,-0.14339 -3.91815,1.78522 -466.52244,1.72885 -466.52951,-0.0569 z M 657.5,624 c 0,-0.825 -1.0125,-1.6438 -2.25,-1.81955 -1.73169,-0.24594 -2.25,0.17321 -2.25,1.81955 0,1.64634 0.51831,2.06549 2.25,1.81955 C 656.4875,625.6438 657.5,624.825 657.5,624 Z M 356.68722,563.174 c 1.75297,-0.17136 4.09465,0.17408 5.20373,0.76764 1.52382,0.81552 2.99471,0.68779 6.02028,-0.5228 3.16947,-1.26817 4.68988,-1.37603 7.29628,-0.5176 1.81087,0.59641 4.41749,0.85523 5.79249,0.57515 7.21932,-1.47052 14.22682,-1.69296 16.41646,-0.5211 1.65241,0.88434 2.89044,0.95083 4.24147,0.22778 1.31355,-0.70299 3.20267,-0.6755 6.06401,0.0882 3.55984,0.95018 4.66696,0.83421 7.71707,-0.80839 3.17952,-1.71228 3.55923,-2.34864 3.54452,-5.94031 -0.015,-3.66247 -4.04991,-23.63369 -6.95006,-34.39996 l -1.17915,-4.37735 -25.40536,0.43889 c -13.97296,0.2414 -25.59419,0.63621 -25.82497,0.87736 -0.23078,0.24115 -1.80026,7.18846 -3.48773,15.43846 -2.8873,14.11587 -5.0837,33.79966 -3.40252,30.49278 0.42144,-0.82897 2.20051,-1.64743 3.95348,-1.81878 z m 259.8201,-98.00847 c -0.59833,-1.55268 -0.70539,-1.55232 -1.57993,0.005 -0.61145,1.08899 -0.52085,2.65598 0.26017,4.5 l 1.19829,2.82921 0.38165,-2.83447 c 0.2099,-1.55896 0.0928,-3.58396 -0.26018,-4.5 z M 489,468.2 c 0,-0.44 -0.52779,-1.32779 -1.17287,-1.97287 -0.8894,-0.8894 -0.89458,-1.78368 -0.0214,-3.7 1.31252,-2.88069 4.62257,-3.3712 6.01071,-0.89072 1.36294,2.43545 8.1836,1.0338 8.1836,-1.68172 C 502,458.69445 501.31851,458 500.08179,458 496.14539,458 495,456.88018 495,453.03168 c 0,-3.47128 0.1896,-3.71809 2.51478,-3.27361 1.38313,0.26441 2.75399,0.86779 3.04636,1.34085 0.29237,0.47307 1.361,0.34214 2.37473,-0.29094 1.53296,-0.95735 2.51838,-0.61627 5.85547,2.02676 4.49914,3.56338 7.87645,3.45089 6.68447,-0.22265 -0.37693,-1.16165 -0.75068,-3.23709 -0.83057,-4.61209 -0.11766,-2.02531 0.37465,-2.55986 2.59281,-2.81527 2.5431,-0.29282 2.69615,-0.10571 2.14944,2.62783 -0.85031,4.25153 1.04817,7.18744 4.64769,7.18744 3.73636,0 3.72927,-1.0396 -0.0352,-5.16114 -1.65,-1.80652 -3,-3.65724 -3,-4.1127 0,-0.45547 1.60329,-2.29693 3.56286,-4.09213 3.30476,-3.02756 3.47377,-3.45953 2.3331,-5.96302 -1.08249,-2.37581 -1.62889,-2.62414 -4.56286,-2.07372 -2.66725,0.50038 -3.3331,0.30047 -3.3331,-1.0007 0,-1.80283 5.54366,-5.587 8.1933,-5.59285 2.37542,-0.005 5.04799,4.00059 3.72922,5.58962 -1.04335,1.25716 -0.5265,11.79102 0.90313,18.40664 0.55138,2.55153 1.28722,3.5 2.71535,3.5 2.39558,0 3.25959,-4.75091 1.32949,-7.31047 -1.07765,-1.42911 -1.05796,-1.49685 0.12774,-0.43953 2.05939,1.83641 5.37828,1.52534 8.00177,-0.75 1.26831,-1.1 2.5052,-2 2.74864,-2 1.36059,0 6.25136,4.35621 6.25136,5.56809 0,1.6644 -2.13315,1.89876 -3.63278,0.39913 -1.36431,-1.36431 -4.16014,-0.22266 -5.47602,2.23608 -1.36943,2.5588 -0.31693,3.54366 2.14437,2.00656 1.63879,-1.02344 2.14128,-0.89954 3.19507,0.78785 0.88015,1.40935 2.33207,2.00229 4.90292,2.00229 2.32414,0 3.8618,0.54552 4.22807,1.5 0.73514,1.91575 5.02253,1.94696 6.5985,0.048 3.08874,-3.7217 -1.40491,-7.26547 -5.04066,-3.97516 -1.06245,0.96151 -2.26577,1.41416 -2.67403,1.00589 -0.40826,-0.40826 0.0445,-1.31761 1.00613,-2.02077 0.96164,-0.70317 1.74843,-2.03872 1.74843,-2.9679 0,-1.4783 0.76905,-1.60241 6.15433,-0.99313 l 6.15432,0.69628 -0.62932,-3.14662 C 571.1435,444.46751 571.34344,444 573.025,444 c 1.08625,0 1.975,0.1882 1.975,0.41821 0,0.23002 0.25088,1.072 0.55751,1.87106 0.30663,0.79907 -0.0926,2.10295 -0.88716,2.89752 -1.22837,1.22838 -1.24421,1.92141 -0.10578,4.62894 0.74941,1.78233 2.0778,3.18427 3.01721,3.18427 1.39368,0 1.59364,-0.75135 1.17899,-4.43006 l -0.49933,-4.43005 6.11928,-0.83445 6.11928,-0.83445 -0.28335,-3.65587 c -0.15769,-2.03458 0.2422,-3.98067 0.90171,-4.38827 1.68707,-1.04267 3.94699,2.46461 3.28572,5.0993 -0.67745,2.69918 1.8289,3.95471 4.7615,2.38523 2.64468,-1.41538 6.83442,-0.32484 6.83442,1.77893 0,0.90872 -0.73711,2.4667 -1.63801,3.46219 -1.33538,1.47557 -1.40513,2.09059 -0.37756,3.32874 0.69325,0.83532 2.34448,1.51876 3.6694,1.51876 1.32492,0 2.66796,0.675 2.98454,1.5 0.31659,0.825 1.42746,1.5 2.46862,1.5 1.04115,0 1.89301,0.44035 1.89301,0.97856 0,0.59528 0.9792,0.53241 2.5,-0.16051 4.00229,-1.82357 2.99568,-3.5622 -2.5,-4.31805 -3.23425,-0.44482 -5,-1.17184 -5,-2.05865 0,-2.09941 3.77172,-3.6504 7.09961,-2.91947 1.89094,0.41532 3.56832,0.16868 4.58365,-0.67398 0.88074,-0.73094 3.76544,-1.37385 6.41043,-1.42867 4.15485,-0.0861 4.84971,0.18468 5.1077,1.99054 0.45185,3.16287 5.63606,3.45718 7.9053,0.44879 l 1.74203,-2.30947 0.68405,2.72546 c 0.37623,1.499 1.31026,2.72545 2.07564,2.72545 2.24574,0 5.39159,-3.79258 5.39159,-6.5 0,-2.25 0.4,-2.5 4,-2.5 3.35393,0 4,0.3281 4,2.03138 0,2.84634 1.98055,3.29252 6.40646,1.44326 2.25549,-0.94241 4.94862,-1.33592 6.62414,-0.96792 1.73234,0.38049 3.99176,0.016 5.84675,-0.9433 3.9719,-2.05394 6.12265,-1.97881 6.12265,0.2139 0,0.97752 1.35,2.96192 3,4.40977 3.93761,3.45519 3.83221,5.01971 -0.5,7.4219 -2.48301,1.37681 -2.89577,7.89101 -0.5,7.89101 0.93333,0 1.5,-0.94444 1.5,-2.5 0,-3.74796 1.03889,-4.70376 5.90593,-5.43362 2.43679,-0.36542 4.97243,-1.31735 5.63475,-2.11539 1.90285,-2.2928 2.95932,-1.70778 2.95932,1.63872 0,1.99696 -0.79576,3.73488 -2.25,4.91392 -2.95423,2.39517 -1.62358,3.60086 2.21794,2.00965 C 704.75807,463.85757 705,463.36809 705,458.87868 705,455.34371 704.61107,454 703.5879,454 c -0.86598,0 -1.67107,-1.5328 -2.0817,-3.9633 -0.77993,-4.61635 0.0195,-6.47226 2.34495,-5.44388 0.90687,0.40104 3.88432,0.99422 6.61657,1.31817 l 4.96771,0.58901 0.17357,5.75 c 0.17248,5.7142 0.15556,5.75 -2.71772,5.75 -2.40738,0 -2.89128,0.41306 -2.89128,2.46803 0,2.34517 0.27632,2.46076 5.55101,2.32198 5.88772,-0.15491 7.89559,-1.17845 4.20499,-2.14357 -1.76063,-0.46041 -1.96576,-0.83668 -0.98875,-1.81369 0.67801,-0.67801 1.23275,-2.19572 1.23275,-3.37269 0,-1.63478 1.00327,-2.4652 4.25,-3.51778 2.3375,-0.75781 5.52212,-2.62984 7.07692,-4.16006 1.79202,-1.76368 3.89703,-2.78222 5.75,-2.78222 3.31062,0 3.96295,1.91531 0.92308,2.71025 -2.43017,0.6355 -2.43287,0.69413 -0.25,5.43634 2.14967,4.67009 2.90231,4.79135 3.7452,0.60341 1.22901,-6.10639 1.60676,-6.75 3.96181,-6.75 1.89102,0 2.57059,-0.84111 3.65967,-4.5296 1.63326,-5.5315 3.96847,-5.62376 5.30969,-0.20978 0.5095,2.05666 1.37406,3.73938 1.92125,3.73938 0.5472,0 1.82059,0.74724 2.82977,1.66054 2.14864,1.94449 3.40142,1.20022 2.30167,-1.36741 -0.42241,-0.98622 -0.86563,-4.29367 -0.98493,-7.34988 -0.1193,-3.05621 -0.76394,-6.57887 -1.43252,-7.82814 -0.66859,-1.24926 -0.97009,-2.91123 -0.67,-3.69325 C 759.00862,425.81397 762,425.46424 762,427 c 0,0.55 0.74474,1 1.65499,1 1.51267,0 1.50593,-0.16471 -0.0785,-1.91544 -1.62256,-1.7929 -1.62696,-2.07796 -0.0688,-4.45602 2.15468,-3.28847 1.11774,-4.92483 -2.60294,-4.10763 -2.16921,0.47644 -2.9048,0.26904 -2.9048,-0.81901 0,-2.09749 1.96286,-3.42255 6.25932,-4.22545 2.87201,-0.53671 3.90543,-1.28467 4.37834,-3.16893 0.79456,-3.16577 -0.38301,-13.29576 -1.73494,-14.92474 -0.72937,-0.87883 -0.6058,-1.93551 0.417,-3.56586 1.55872,-2.48461 2.58011,-16.17154 3.12059,-41.81692 0.16807,-7.975 0.70026,-23.725 1.18264,-35 0.48238,-11.275 0.87705,-30.7777 0.87705,-43.33934 0,-22.4605 -0.0372,-22.86946 -2.24386,-24.65532 -1.23412,-0.99878 -4.38412,-2.10046 -7,-2.44816 -7.44404,-0.98946 -112.25047,0.23521 -126.75614,1.48115 -9.15241,0.78614 -14.28982,1.72235 -17.35797,3.16322 -4.29375,2.01644 -4.34857,2.10536 -3.72031,6.03429 0.35071,2.19323 0.2183,4.49989 -0.29426,5.12592 -0.51255,0.62603 -1.44466,3.05597 -2.07136,5.39985 -0.62669,2.34389 -2.47069,6.23415 -4.09777,8.64503 C 606.93396,276.40619 606,279.02287 606,281.69502 606,285.87508 604.62577,288 601.92244,288 c -0.92265,0 -2.19274,0.62077 -2.82242,1.37949 -0.62968,0.75871 -2.42195,1.6349 -3.98282,1.94707 -3.73696,0.74739 -8.9056,5.16895 -9.30212,7.95757 -0.24534,1.72539 -0.97912,2.21587 -3.31508,2.21587 -2.6645,0 -3.05592,0.39015 -3.5,3.48865 -0.56814,3.96411 -4,5.75268 -4,2.08467 C 575,305.68768 574.35621,305 573.05902,305 c -2.84508,0 -3.50925,1.84502 -1.47382,4.09414 1.62302,1.79342 1.64092,2.10831 0.20169,3.54754 -1.43923,1.43923 -1.64006,1.30332 -2.26261,-1.53113 -0.37575,-1.7108 -1.20994,-3.15614 -1.85374,-3.21187 -2.8047,-0.24276 -8.20095,0.35248 -10.24673,1.13029 -1.311,0.49844 -3.64667,0.40852 -5.69171,-0.21912 -2.28242,-0.70049 -4.44767,-0.73799 -6.33262,-0.10968 -6.21532,2.07178 -13.23626,-0.95774 -21.55819,-9.30229 -1.96134,-1.96666 -3.3477,-2.53423 -5.28541,-2.16381 -1.91684,0.36643 -2.90958,-0.0264 -3.67345,-1.45376 -0.78274,-1.46255 -1.67806,-1.79744 -3.54964,-1.3277 -5.04596,1.26646 -8.35169,-2.03371 -5.19708,-5.18832 0.84762,-0.84762 0.70526,-1.56617 -0.5612,-2.83263 -1.38796,-1.38796 -2.14951,-1.4907 -4.18276,-0.56429 -3.48837,1.58941 -4.09712,1.44266 -4.74637,-1.14416 C 495.99148,282.11789 489.96696,275 488.41573,275 c -0.56841,0 -1.88999,-0.6263 -2.93685,-1.39179 -1.61719,-1.18252 -1.7027,-1.6336 -0.56869,-3 1.06893,-1.28797 1.08681,-1.9069 0.0898,-3.10821 -0.68469,-0.825 -1.75654,-1.5 -2.3819,-1.5 -0.62535,0 -1.69907,-0.9 -2.38603,-2 -0.68696,-1.1 -2.18557,-2 -3.33025,-2 -2.73801,0 -5.82676,-3.80233 -5.86855,-7.22432 -0.0409,-3.35152 -3.67988,-5.46769 -11.85875,-6.89623 -9.43771,-1.64841 -21.44484,-1.97168 -74.42482,-2.00369 -53.44519,-0.0323 -56.62903,0.20827 -58.95238,4.45433 -1.38784,2.53634 -1.28283,24.60378 0.30297,63.66991 0.56931,14.025 1.15348,29.28271 1.29815,33.90603 0.35207,11.25163 1.12699,11.90729 17.65145,14.93487 7.28382,1.33453 14.42139,3.29318 17.20063,4.72009 2.61279,1.34146 5.79685,2.43901 7.07569,2.43901 1.27884,0 3.3945,1.13826 4.70148,2.52947 1.30697,1.39121 2.97482,2.29981 3.70633,2.0191 0.77815,-0.2986 1.72138,0.51902 2.27324,1.97053 1.0418,2.74014 2.61909,3.0639 6.44162,1.32224 2.13526,-0.97289 2.88073,-0.85302 4.64944,0.74764 1.15854,1.04846 2.72169,3.09607 3.47367,4.55024 0.75198,1.45417 2.61841,3.08736 4.14763,3.6293 1.52921,0.54195 4.02879,2.15436 5.55464,3.58315 2.31899,2.17149 2.58474,2.90125 1.6194,4.44701 -0.96115,1.53903 -0.7032,2.30087 1.53784,4.54192 1.80758,1.80757 2.50794,3.34465 2.1306,4.67605 -0.30915,1.09084 -0.8054,2.84548 -1.10278,3.89919 -0.29737,1.05372 10e-4,2.25089 0.66403,2.6604 0.66259,0.4095 6.63945,0.79636 13.2819,0.85969 11.09851,0.1058 12.10739,0.27195 12.44988,2.05035 0.44709,2.32152 -2.69601,8.51372 -4.32147,8.51372 -0.63327,0 -2.02491,-0.66069 -3.09253,-1.4682 -2.39005,-1.80774 -7.44253,-1.99918 -7.43738,-0.2818 0.004,1.193 7.24744,4.75 9.67342,4.75 0.63589,0 1.34331,-0.56144 1.57205,-1.24765 0.30737,-0.92213 1.37274,-0.73234 4.08333,0.72741 2.70886,1.45882 3.67576,2.6344 3.69925,4.49764 0.0175,1.38743 0.6925,3.39611 1.5,4.46373 0.80751,1.06762 1.4682,2.75512 1.4682,3.75 0,4.47689 5.08528,-0.48596 5.21621,-5.09062 0.10381,-3.65143 0.2922,-3.69762 4.53379,-1.11147 3.11248,1.89772 4.58792,6.01096 2.15616,6.01096 -0.74122,0 -0.86958,1.69242 -0.39818,5.25 0.6907,5.21258 1.8767,7.69865 3.09262,6.48273 1.23212,-1.23212 1.64896,-9.46046 0.51476,-10.16143 C 454.92639,437.21844 456.05637,436 459.5,436 c 3.87976,0 3.83169,-0.10547 2.50701,5.5 -0.51989,2.2 -0.70383,4.7875 -0.40875,5.75 0.56462,1.84168 3.40174,2.46719 3.40174,0.75 0,-1.94837 4.18006,-1.02744 4.72072,1.04005 0.72017,2.75393 5.56528,5.27395 7.13052,3.70871 1.60025,-1.60025 1.43275,-4.89829 -0.38022,-7.48668 -0.96104,-1.37207 -1.28977,-3.13606 -0.88498,-4.74888 1.05939,-4.22094 6.41396,-5.85235 6.41396,-1.95418 0,1.65007 1.58044,1.92885 2.5,0.44098 1.03673,-1.67746 2.11898,-1.13166 3.42061,1.7251 1.32902,2.91688 1.55353,2.58624 -5.57757,8.2141 -1.18632,0.93624 -2.31132,2.79544 -2.5,4.13153 -0.26414,1.8705 -0.86057,2.35731 -2.59304,2.11641 -1.62466,-0.2259 -2.25,0.19362 -2.25,1.50945 0,1.00228 -0.9,2.38438 -2,3.07134 -2.17128,1.35598 -2.78878,4.6499 -0.75,4.00071 0.6875,-0.21891 1.7,-1.40019 2.25,-2.62506 0.55,-1.22487 2.125,-2.44607 3.5,-2.71378 1.375,-0.26771 3.80344,-0.90974 5.39654,-1.42672 3.56342,-1.15639 5.13767,-0.35156 3.40202,1.73926 -0.71421,0.86035 -1.35393,3.52029 -1.4216,5.91097 -0.10262,3.6256 0.18769,4.34669 1.75,4.34669 1.03017,0 1.87304,-0.36 1.87304,-0.8 z m 0.5,-14.2 c 0.33992,-0.55 0.81648,-1 1.05902,-1 0.24254,0 0.44098,0.45 0.44098,1 0,0.55 -0.47656,1 -1.05902,1 -0.58246,0 -0.7809,-0.45 -0.44098,-1 z m 205.16667,-1.66667 C 694.3,451.96667 694,450.80417 694,449.75 c 0,-2.59345 2.41518,-1.66977 2.81955,1.07833 0.30937,2.10247 -0.78817,2.86972 -2.15288,1.505 z m -137.47224,-6.5389 C 555.58416,444.18416 555.68864,443 557.44098,443 c 1.85876,0 2.62724,1.27158 1.68746,2.79217 -0.57332,0.92765 -1.00811,0.92816 -1.93401,0.002 z M 612,444.03138 c 0,-1.33903 0.47971,-1.78453 1.5,-1.39301 0.825,0.31659 1.5,1.20246 1.5,1.96862 0,0.76615 -0.675,1.39301 -1.5,1.39301 -0.82536,0 -1.5,-0.8854 -1.5,-1.96862 z m 8.73301,0.65177 c -3.41741,-1.33533 -3.02999,-3.01695 0.84949,-3.68721 2.5697,-0.44398 3.02689,-1.06983 3.8351,-5.25 0.99552,-5.14896 1.91794,-5.856 3.5824,-2.74594 0.5887,1.1 1.72953,2 2.53518,2 1.90471,0 1.88353,2.40761 -0.0352,4 -0.825,0.68469 -1.5,1.80969 -1.5,2.5 0,2.99776 -5.18416,4.77848 -9.26699,3.18315 z M 508.38,443.54789 c -0.30647,-0.79867 -0.27794,-1.90401 0.0634,-2.45633 0.96626,-1.56344 3.55659,-0.0956 3.55659,2.01543 0,2.21791 -2.80691,2.55978 -3.62,0.4409 z m 158.29756,0.32964 c -1.00234,-0.58189 -2.95888,-0.77276 -4.34787,-0.42414 -1.81828,0.45636 -2.40482,0.27161 -2.0947,-0.65977 0.23691,-0.71149 1.29345,-1.45117 2.34788,-1.64373 1.05442,-0.19256 2.89346,-1.54256 4.08675,-3 l 2.16962,-2.64989 1.12073,2.92123 c 1.93713,5.04919 0.40458,7.59673 -3.28241,5.4563 z m 26.98043,0.44713 C 693.2961,443.96276 693,442.84167 693,441.83333 c 0,-2.16088 2.54142,-2.47074 3.33357,-0.40644 0.59899,1.56094 -1.61479,3.95856 -2.67558,2.89777 z M 578.77543,443.4421 C 577.36175,442.02842 579.3717,439 581.72362,439 c 1.86004,0 2.33673,0.40036 1.88337,1.58179 -0.33385,0.86998 -0.60699,1.99498 -0.60699,2.5 0,0.99246 -3.3101,1.27477 -4.22457,0.36031 z M 493,439.04638 c 0,-3.76023 0.16751,-4.0271 1.93426,-3.08156 1.06384,0.56935 3.7904,1.03518 6.05902,1.03518 2.49519,0 3.88059,0.39507 3.50672,1 -0.33992,0.55 -1.55086,1 -2.69098,1 -1.14012,0 -3.58857,0.9367 -5.44099,2.08156 L 493,443.16312 Z m 76.44113,1.47262 c -1.68015,-1.28188 -1.73946,-1.61594 -0.44113,-2.48468 2.59079,-1.73357 6,-1.24566 6,0.85869 0,1.04116 -0.7118,2.16616 -1.58179,2.5 -2.02483,0.777 -1.72746,0.84236 -3.97708,-0.87401 z M 723,440.5 c 0,-0.825 0.1882,-1.5 0.41821,-1.5 0.23002,0 1.13002,-0.27314 2,-0.60699 1.00914,-0.38724 1.58179,-0.0639 1.58179,0.89301 0,0.825 -0.7118,1.77315 -1.58179,2.10699 C 723.18315,442.25069 723,442.18305 723,440.5 Z m -86.31324,-1.58984 C 635.99415,436.26164 636.57921,435 638.5,435 c 2.42131,0 2.80907,2.13537 0.75988,4.18457 -1.97712,1.97711 -1.98454,1.97632 -2.57312,-0.27441 z M 610,438.58333 C 610,437.7125 610.7125,437 611.58333,437 c 0.87084,0 1.40521,0.53437 1.1875,1.1875 C 612.15276,440.04172 610,440.34926 610,438.58333 Z M 734.5,437 c -0.99549,-1.1 -1.30606,-2 -0.69017,-2 0.61589,0 1.60147,0.9 2.19017,2 0.5887,1.1 0.89928,2 0.69017,2 -0.20911,0 -1.19468,-0.9 -2.19017,-2 z m -139,-2 c 0.33992,-0.55 1.04148,-1 1.55902,-1 0.51754,0 0.94098,0.45 0.94098,1 0,0.55 -0.70156,1 -1.55902,1 -0.85746,0 -1.2809,-0.45 -0.94098,-1 z m 54,0 c 0.33992,-0.55 1.04148,-1 1.55902,-1 0.51754,0 0.94098,0.45 0.94098,1 0,0.55 -0.70156,1 -1.55902,1 -0.85746,0 -1.2809,-0.45 -0.94098,-1 z m 2.5,-3.31854 c 0,-1.8669 1.63099,-3.08755 2.41989,-1.81108 0.30695,0.49665 -0.11196,1.45909 -0.9309,2.13876 C 652.27832,433.0139 652,432.95265 652,431.68146 Z M 478.63837,430.5 c 0.31659,-0.825 0.75246,-1.5 0.96862,-1.5 0.21615,0 0.39301,0.675 0.39301,1.5 0,0.825 -0.43588,1.5 -0.96862,1.5 -0.53273,0 -0.70959,-0.675 -0.39301,-1.5 z m 76.58112,-1.75 c -0.58788,-2.28075 -1.50828,-3.34755 -3.08623,-3.5771 -2.51687,-0.36614 -2.37699,-2.49652 0.19669,-2.99566 1.03828,-0.20137 2.03212,0.64489 2.64239,2.25 0.53799,1.41502 1.67842,2.57276 2.53429,2.57276 2.10863,0 3.12418,2.98696 1.38909,4.08561 -2.25979,1.43089 -2.79267,1.09234 -3.67623,-2.33561 z M 699,431.05902 c 0,-0.51754 0.45,-1.2191 1,-1.55902 0.55,-0.33992 1,0.0835 1,0.94098 0,0.85746 -0.45,1.55902 -1,1.55902 -0.55,0 -1,-0.42344 -1,-0.94098 z m 50.18045,-1.23069 C 749.65153,426.62683 752,426.28395 752,429.41667 752,431.09717 751.45147,432 750.43045,432 c -1.04234,0 -1.46221,-0.72946 -1.25,-2.17167 z M 733.19167,428.925 c 0.19708,-0.59125 0.78583,-1.075 1.30833,-1.075 0.5225,0 1.11125,0.48375 1.30833,1.075 0.19709,0.59125 -0.39166,1.075 -1.30833,1.075 -0.91667,0 -1.50542,-0.48375 -1.30833,-1.075 z M 487.5,428 c -0.33992,-0.55 0.30852,-1 1.44098,-1 1.13246,0 2.05902,0.45 2.05902,1 0,0.55 -0.64844,1 -1.44098,1 -0.79254,0 -1.7191,-0.45 -2.05902,-1 z M 466,426 c 0,-1.1 -0.45,-2 -1,-2 -0.55,0 -1,-0.765 -1,-1.7 0,-1.32222 0.26667,-1.43333 1.2,-0.5 0.66,0.66 2.24912,1.2 3.53138,1.2 2.71825,0 4.19981,2.79676 2.16434,4.08561 C 468.41247,428.658 466,428.12304 466,426 Z m -25.7862,-1.8769 c 0.23031,-1.1998 1.54704,-1.65995 5.04888,-1.7644 2.60553,-0.0777 4.73043,0.14728 4.72201,0.5 -0.0436,1.82518 -1.914,2.73265 -5.78357,2.806 -3.45262,0.0654 -4.23756,-0.23802 -3.98732,-1.5416 z M 454,422.55902 c 0,-2.98835 1.59604,-4.13917 3.52279,-2.5401 1.05923,0.87908 1.16952,1.68749 0.42101,3.08609 C 456.48033,425.83954 454,425.49616 454,422.55902 Z M 585,423 c 0,-1.25292 1.06124,-1.25292 3,0 1.21296,0.78387 1.06944,0.9723 -0.75,0.98469 C 586.0125,423.99311 585,423.55 585,423 Z m -41.92105,-1.58333 c 0.048,-1.16495 0.28494,-1.4019 0.60416,-0.60417 0.28887,0.72187 0.25335,1.58438 -0.0789,1.91667 -0.33229,0.33229 -0.56864,-0.25834 -0.52522,-1.3125 z m -64.41252,-0.84356 c -0.76254,-1.98714 2.06489,-4.24179 3.50873,-2.79795 1.38085,1.38085 0.34634,4.22484 -1.53679,4.22484 -0.78341,0 -1.67079,-0.6421 -1.97194,-1.42689 z m -14.99976,-3.23978 C 462.51603,416.1827 462.93843,415 464.5,415 c 0.825,0 1.5,0.675 1.5,1.5 0,1.56157 -1.1827,1.98397 -2.33333,0.83333 z M 412,403.17431 c 0,-0.45412 1.11326,-1.87153 2.4739,-3.14979 2.18635,-2.05397 2.54806,-2.13087 3.11188,-0.66158 0.35088,0.91439 0.0825,2.3318 -0.59635,3.14979 C 415.68386,404.08585 412,404.57432 412,403.17431 Z M 519,307 c 0,-0.55 0.45,-1 1,-1 0.55,0 1,0.45 1,1 0,0.55 -0.45,1 -1,1 -0.55,0 -1,-0.45 -1,-1 z m 55,160 c 0,-0.55 -1.575,-1 -3.5,-1 -1.925,0 -3.5,0.45 -3.5,1 0,0.55 1.575,1 3.5,1 1.925,0 3.5,-0.45 3.5,-1 z m -109,-3.13837 c 0,-1.53448 -3.05224,-2.20939 -4.30886,-0.95277 -0.89923,0.89923 -0.84615,1.37731 0.22654,2.04026 1.58267,0.97814 4.08232,0.31226 4.08232,-1.08749 z m 186.89481,0.76512 C 653.74196,462.40106 652.12365,460 648.77638,460 c -2.51731,0 -2.92409,0.32717 -2.48663,2 0.36674,1.40243 0.0281,2.00458 -1.13337,2.01531 -1.43483,0.0133 -1.45575,0.14498 -0.15638,0.98469 2.16863,1.40148 5.57495,1.21708 6.89481,-0.37325 z m -23.40758,-0.60608 C 629.36889,462.59411 627.18278,459 625.43343,459 c -0.82291,0 -1.75742,0.68073 -2.07669,1.51273 -1.10511,2.87988 3.55106,6.06351 5.13049,3.50794 z M 678.08179,462 c 2.13299,0 0.67443,-1.88933 -2.24395,-2.90668 -3.80646,-1.32694 -4.36775,-0.95199 -2.84217,1.89859 0.7081,1.32309 1.74225,1.9389 2.66281,1.58565 C 676.48628,462.2599 677.57677,462 678.08179,462 Z M 729,458.96437 c 1.27943,-0.85722 1.15012,-1.29832 -0.87939,-2.99975 -1.82923,-1.53353 -2.69629,-1.73174 -3.75,-0.85724 -3.52315,2.92396 0.73139,6.46866 4.62939,3.85699 z m -302.5367,-2.61486 c -2.10282,-1.53763 -2.96366,-1.0958 -2.12469,1.0905 0.36286,0.94561 1.22413,1.28128 2.26383,0.8823 1.54266,-0.59197 1.53143,-0.75126 -0.13914,-1.9728 z M 641.5,455.98304 c 0,-1.78933 -4.06193,-2.41286 -8.39831,-1.2892 -6.26614,1.62372 -2.09292,4.4674 4.89831,3.33776 2.17243,-0.35102 3.5,-1.12805 3.5,-2.04856 z m -55.05577,1.1072 C 587.42329,455.50608 585.86016,453 583.89301,453 c -1.98889,0 -2.29029,0.80113 -1.28602,3.41821 0.66203,1.72522 2.93979,2.12413 3.83724,0.67203 z M 468,454.5 c 0,-1.375 -0.45,-2.5 -1,-2.5 -0.55,0 -1,1.125 -1,2.5 0,1.375 0.45,2.5 1,2.5 0.55,0 1,-1.125 1,-2.5 z m 62,0.91667 c 0,-0.87084 -0.53437,-1.40521 -1.1875,-1.1875 C 526.95828,454.84724 526.65074,457 528.41667,457 529.2875,457 530,456.2875 530,455.41667 Z m -107,-1.85765 c 0,-0.24254 -0.45,-0.7191 -1,-1.05902 -0.55,-0.33992 -1,-0.14148 -1,0.44098 0,0.58246 0.45,1.05902 1,1.05902 0.55,0 1,-0.19844 1,-0.44098 z M 711,452 c 0,-1.46667 -0.66667,-2 -2.5,-2 -1.83333,0 -2.5,0.53333 -2.5,2 0,1.46667 0.66667,2 2.5,2 1.83333,0 2.5,-0.53333 2.5,-2 z m -261.60699,-0.58179 c 1.62248,-4.2281 -0.24575,-5.70881 -3.86436,-3.06282 -1.13487,0.82984 -1.6089,1.9931 -1.22251,3 0.80489,2.09754 4.28956,2.14057 5.08687,0.0628 z M 434.75573,439.5 c 0.42504,-3.3242 -1.06236,-4.58867 -4.57201,-3.88674 -2.42495,0.48499 -3.18372,1.16305 -3.18372,2.84507 0,3.01089 0.90486,3.68771 4.46406,3.33906 2.16127,-0.21171 3.10962,-0.8736 3.29167,-2.29739 z m -25.36876,-2.2203 c 0.39617,-0.39617 2.21676,-0.59138 4.04576,-0.4338 2.94939,0.2541 3.45223,-0.0771 4.44637,-2.92892 1.45526,-4.17457 1.42159,-4.36053 -0.45053,-2.48841 -1.99566,1.99566 -5.37884,2.0217 -6.81877,0.0525 -0.99125,-1.35561 -1.35258,-1.34951 -3.36024,0.0567 C 404.1215,433.72873 404.28703,438 407.5,438 c 0.64167,0 1.4908,-0.32414 1.88697,-0.7203 z M 420,428 c 0,-0.55 -0.45,-1 -1,-1 -0.55,0 -1,0.45 -1,1 0,0.55 0.45,1 1,1 0.55,0 1,-0.45 1,-1 z m -7.48492,-7.0244 c 1.21717,-1.96942 -0.6223,-6.69502 -3.1281,-8.03609 -3.93623,-2.1066 -4.70357,0.39745 -1.58257,5.16438 2.63599,4.02615 3.62468,4.62887 4.71067,2.87171 z M 404,403 c 0,-0.55 -0.45,-1 -1,-1 -0.55,0 -1,0.45 -1,1 0,0.55 0.45,1 1,1 0.55,0 1,-0.45 1,-1 z m 282.35082,232.23469 c -0.63206,-0.40408 -1.30706,-1.85969 -1.5,-3.23469 -0.19295,-1.375 -0.57582,-2.31146 -0.85082,-2.08102 -0.95342,0.79892 -5,-1.99659 -5,-3.45416 0,-2.43141 1.78955,-1.67527 6,2.53518 4.67558,4.67558 5.60227,8.95269 1.35082,6.23469 z m 5.38335,-9.62444 c 0.42809,-2.2394 5.86152,-6.07346 6.69525,-4.72446 0.38688,0.62599 -0.31753,5.11421 -0.80265,5.11421 -0.077,0 -1.52713,0.39783 -3.22254,0.88407 -2.82097,0.80904 -3.04756,0.70094 -2.67006,-1.27382 z m -30.23854,-11.61731 c -0.34231,-0.55389 0.10054,-1.28448 0.98412,-1.62354 1.91464,-0.73472 2.98171,0.0749 2.06137,1.56407 -0.83038,1.34358 -2.23491,1.37101 -3.04549,0.0595 z M 651,605.43045 c 0,-1.04234 0.72946,-1.46221 2.17167,-1.25 3.2015,0.47108 3.54438,2.81955 0.41166,2.81955 C 651.90283,607 651,606.45147 651,605.43045 Z"
       style="fill:#f2ead7" />
    <path
       id="path30"
       d="m 284,638.97891 c -0.825,-0.54476 -4.70059,-0.90206 -8.61243,-0.79401 -6.49879,0.17951 -7.86594,-0.1651 -15.84604,-3.99422 C 254.73805,631.88581 249.78124,630 248.52641,630 c -1.25484,0 -2.84172,-0.675 -3.52641,-1.5 -0.68469,-0.825 -1.74583,-1.5 -2.35809,-1.5 -2.53213,0 -11.6403,-5.42147 -11.61485,-6.91352 0.0295,-1.72826 6.43472,-9.08648 7.90967,-9.08648 0.5004,0 2.18185,-1.01477 3.73654,-2.25506 1.5547,-1.24028 5.57487,-3.60278 8.9337,-5.25 4.84226,-2.37471 6.58647,-3.88813 8.42239,-7.30797 2.86243,-5.33193 6.53394,-8.32515 9.90537,-8.0754 1.4109,0.10452 4.71242,0.12217 7.33671,0.0392 4.11803,-0.13015 4.9364,-0.51286 5.97608,-2.79471 1.05539,-2.31632 0.94914,-2.81355 -0.85751,-4.01313 -2.06067,-1.36823 -2.06082,-1.37595 -0.20969,-10.60609 1.25883,-6.27679 2.15125,-17.26759 2.78477,-34.29656 0.82354,-22.1368 1.40268,-27.79369 4.9653,-48.5 C 293.36126,467.9997 299,432.3398 299,430.58326 c 0,-0.29844 -1.6875,-1.41462 -3.75,-2.48041 -5.50682,-2.84564 -11.78176,-9.79924 -14.78875,-16.38821 -3.00732,-6.58971 -5.36788,-18.39525 -5.44167,-27.21464 -0.0276,-3.3 -0.38081,-6.45 -0.78489,-7 -0.40408,-0.55 -3.43469,-3.21381 -6.73469,-5.91959 -9.87645,-8.098 -16.52918,-14.84117 -18.82452,-19.08041 -3.35463,-6.19563 -2.9315,-17.7568 1.20777,-33 7.12096,-26.22351 17.28049,-54.63212 23.6089,-66.0164 7.41672,-13.34205 14.21338,-18.77055 35.73392,-28.54069 7.30066,-3.31444 14.16143,-6.9075 15.24615,-7.98458 1.96297,-1.94914 1.96297,-1.96738 0,-3.88692 C 323.3875,212.01068 317.325,208.36773 311,204.97597 296.40411,197.14896 289.02239,191.87323 280.69571,183.31741 271.88372,174.26292 266.96207,167.48837 261.65196,157.10406 253.84373,141.83451 250.68492,129.09434 250.71678,113 c 0.044,-22.249131 7.41333,-39 17.15748,-39 1.65424,0 3.25261,-0.396269 3.55195,-0.880598 0.29933,-0.484329 1.78838,-1.17947 3.30901,-1.544757 1.52063,-0.365288 4.56478,-1.109579 6.76478,-1.653979 6.14768,-1.521274 15.45367,-2.737638 33.5,-4.378707 12.88543,-1.171756 18.33208,-1.262065 24.86316,-0.41225 5.34785,0.695853 9.13359,0.74759 10.5,0.143494 1.34109,-0.592901 4.92983,-0.592972 9.63684,-1.92e-4 4.125,0.519484 9.975,1.024476 13,1.122206 3.025,0.09773 6.03243,0.50676 6.68318,0.908957 2.0447,1.263728 10.31682,2.497609 10.31682,1.538871 0,-1.280766 12.94964,0.153256 16.20034,1.793999 C 407.68553,71.38667 410.26392,72 411.9301,72 c 1.66619,0 4.72603,0.626486 6.79966,1.392191 2.07363,0.765705 5.34524,1.778205 7.27024,2.25 3.01539,0.739037 3.93308,1.737593 6.62784,7.21191 4.74384,9.636958 6.79839,20.439819 6.68423,35.145899 -0.12435,16.01928 -3.08766,27.99182 -10.76663,43.5 -6.13826,12.39661 -11.17824,19.35396 -24.981,34.48453 C 398.304,201.75102 394,206.75165 394,207.09705 c 0,0.3454 9.5625,0.57736 21.25,0.51547 19.78757,-0.10478 21.57109,0.0359 25.91566,2.04394 2.56611,1.18605 5.39501,3.2696 6.28645,4.6301 0.89143,1.36051 4.19189,3.90308 7.33434,5.65017 13.70958,7.62201 17.27589,9.72561 18.40866,10.85838 0.66269,0.66269 2.87222,1.20489 4.91006,1.20489 h 3.70517 l -0.5293,-5.83728 c -0.59523,-6.56425 1.7046,-13.16691 4.5829,-13.1572 0.89983,0.003 5.33448,2.9554 9.85477,6.56083 9.74417,7.77204 13.22705,9.12417 16.51314,6.41076 l 2.26815,-1.87287 -3.43715,-6.53164 c -1.89043,-3.5924 -3.2386,-6.73018 -2.99594,-6.97285 0.24267,-0.24266 2.91438,-0.12302 5.93715,0.26588 3.56178,0.45824 7.05156,0.25318 9.91624,-0.58269 5.52456,-1.61199 6.75061,-0.90923 13.99825,8.02365 5.03232,6.20244 5.49822,6.51503 10.67391,7.1617 9.5827,1.19727 37.58296,0.86573 42.12581,-0.49881 5.00318,-1.50281 6.82348,-0.51276 8.10132,4.40628 l 0.8116,3.12424 h 87.93441 c 69.6005,0 88.40136,0.2668 90.17405,1.27964 5.37614,3.07171 5.11344,-3.67593 5.44924,139.96774 l 0.31111,133.08307 -2.43487,2.59601 c -1.33918,1.42781 -4.03918,2.99661 -6,3.48622 -1.96082,0.48961 -65.21513,1.39881 -140.56513,2.02043 -75.35,0.62162 -140.3275,1.38546 -144.39445,1.69741 l -7.39446,0.56719 0.67608,12.15115 c 1.0548,18.95785 4.38533,37.43235 7.36675,40.86349 0.81836,0.9418 3.0085,2.2142 4.867,2.82756 3.71276,1.22532 4.13148,2.09076 1.90542,3.93823 -1.29752,1.07685 -1.29445,1.5696 0.0257,4.12245 1.67239,3.23406 2.02824,3.30654 9.38445,1.91146 4.10515,-0.77853 5.80821,-0.67832 8.03408,0.47272 2.92666,1.51344 6.34899,7.54908 7.52163,13.26523 0.46828,2.28263 1.22829,3.25 2.55335,3.25 1.03764,0 3.36438,0.63175 5.17054,1.40389 1.80616,0.77214 5.24611,1.98556 7.64433,2.69649 4.82905,1.43154 10.62781,6.2169 11.59672,9.57008 0.78081,2.7022 -3.80429,7.32954 -7.26264,7.32954 -2.78326,0 -6.03729,1.58632 -8.48344,4.13561 C 532.72712,626.16102 530.60545,627 528.99623,627 525.86625,627 524,629.2418 524,633.00165 c 0,1.74862 -0.40557,2.00953 -2.25,1.44746 -1.2375,-0.37712 -2.96043,-1.30744 -3.82874,-2.06739 -2.20562,-1.93036 -2.49275,-1.84991 -8.82606,2.47317 -4.69553,3.20515 -6.064,3.7008 -8.11893,2.94063 -1.68314,-0.62264 -4.45169,-0.41686 -8.6794,0.64511 -7.14156,1.7939 -13.32098,1.98644 -18.26314,0.56904 -2.27957,-0.65377 -3.78963,-0.65377 -4.4434,0 -1.35908,1.35908 -183.53123,1.32888 -185.59033,-0.0308 z m 109.19651,-53.33724 c 10.83308,-0.25164 20.21533,-0.77817 20.84944,-1.17007 0.63411,-0.3919 2.45782,-3.47083 4.0527,-6.84207 3.41204,-7.21235 3.6995,-12.79006 1.35282,-26.24854 -1.80417,-10.34709 -7.27537,-32.56017 -8.27166,-33.58298 -0.37609,-0.38609 -12.35777,-0.38609 -26.62597,0 L 358.61165,518.5 355.22985,534 c -2.75772,12.63964 -3.41391,17.89901 -3.55582,28.5 -0.16325,12.19498 -0.01,13.34474 2.48249,18.56714 l 2.65652,5.56715 8.34348,-0.26755 c 4.58891,-0.14715 17.20691,-0.47343 28.03999,-0.72507 z M 599.5,509.02424 c 149.98378,-1.44041 172.24822,-1.91532 174.04534,-3.71243 1.5225,-1.52251 1.53536,-2.91944 1.85861,-201.95617 0.0923,-56.83069 0.0215,-59.22674 -1.80894,-61.25 -1.89484,-2.09443 -2.19836,-2.10517 -57,-2.01723 -57.9907,0.0931 -107.02478,1.11675 -109.66397,2.28947 -1.87325,0.83236 -5.93104,8.83606 -5.93104,11.69853 0,4.69064 -9.08868,17.69194 -14.95768,21.39688 -2.13081,1.34512 -4.1433,2.88107 -4.47219,3.41323 -0.32889,0.53217 -2.27922,1.51584 -4.33406,2.18595 -2.05484,0.67011 -4.77297,2.0244 -6.04029,3.00953 -1.34548,1.04588 -3.90722,1.76902 -6.15683,1.73797 -2.11894,-0.0292 -4.26456,0.20143 -4.76805,0.5126 -1.45984,0.90223 -12.95109,-1.02654 -16.41696,-2.75555 -1.73867,-0.86736 -3.87958,-1.57999 -4.75758,-1.58361 -0.878,-0.004 -2.94636,-0.90066 -4.59636,-1.99341 -1.65,-1.09275 -3.79048,-1.98979 -4.75661,-1.99341 -0.96614,-0.004 -2.73479,-1.13159 -3.93034,-2.50659 -1.19555,-1.375 -2.70286,-2.5 -3.34958,-2.5 -0.64673,0 -3.23858,-1.575 -5.75968,-3.5 -2.52109,-1.925 -5.42661,-3.5 -6.45671,-3.5 -1.03009,0 -3.16628,-1.35 -4.74708,-3 -1.5808,-1.65 -3.71234,-3 -4.73675,-3 -3.5234,0 -7.6045,-2.97562 -10.75996,-7.84532 -2.12735,-3.28306 -4.68967,-5.66038 -7.83247,-7.26697 L 477.5,242.5 h -75.72258 -75.72257 l -2.19032,2.19068 c -2.18226,2.1826 -2.18976,2.32992 -2.03586,40 0.0849,20.79512 0.44769,46.49144 0.80608,57.10291 0.74858,22.16414 -0.12711,20.32304 11.83022,24.87249 3.86926,1.47216 10.12909,4.51204 13.91072,6.75529 5.9037,3.50205 7.70235,5.30456 12.72339,12.7507 l 5.84771,8.67207 0.237,8.47608 c 0.21506,7.69159 -0.037,9.00291 -2.7234,14.16828 -1.7847,3.4316 -4.15065,6.35132 -5.95746,7.35185 -1.64839,0.91281 -3.89839,2.65056 -5,3.86167 -1.10161,1.21111 -3.57793,2.86735 -5.50293,3.68053 -1.925,0.81318 -5.05237,2.63658 -6.94971,4.05199 -2.02921,1.51378 -4.17546,2.34312 -5.21222,2.01406 -2.7055,-0.85869 -5.37379,1.07398 -7.97348,5.77525 -2.33995,4.23158 -2.36459,4.5918 -2.36459,34.56262 0,25.79148 0.22262,30.44115 1.5,31.32861 1.5922,1.10619 73.85322,0.81693 272.5,-1.09084 z M 330.96429,370.60025 c -0.80536,-0.76986 -4.73882,-2.56453 -8.74103,-3.98815 -9.29512,-3.30635 -13.06617,-5.22598 -16.41146,-8.35414 -2.23972,-2.09435 -12.82289,-7.23746 -14.92544,-7.25333 -1.95515,-0.0147 -5.88506,5.59301 -5.8739,8.38173 0.0118,2.94677 0.40032,3.25812 7.25,5.8096 3.98064,1.48277 10.07436,2.99228 13.54159,3.35446 3.46723,0.36217 9.54223,1.24588 13.5,1.96379 3.95777,0.71791 8.52988,1.3459 10.16024,1.39554 2.57026,0.0783 2.76964,-0.0958 1.5,-1.3095 z M 278.37125,344.75 c 2.86048,-3.75917 4.4217,-8.75 2.73716,-8.75 C 280.49878,336 280,335.4205 280,334.71223 c 0,-0.70828 -1.2534,-2.78915 -2.78534,-4.62417 -2.60328,-3.11831 -3.06212,-3.28963 -7.01982,-2.62098 -7.12004,1.20293 -9.03479,4.65065 -4.85526,8.74245 1.28676,1.25976 3.55573,4.42797 5.04215,7.04047 1.48642,2.6125 3.33571,4.75 4.10953,4.75 0.77383,0 2.51982,-1.4625 3.87999,-3.25 z m 26.75996,-19.87811 c 5.59748,-2.04095 8.76168,-4.31234 7.61072,-5.46329 -0.29868,-0.29869 -2.82285,0.61219 -5.60925,2.02417 -2.78641,1.41198 -5.70801,2.56723 -6.49245,2.56723 -0.78444,0 -1.68527,0.675 -2.00186,1.5 -0.7418,1.93312 -0.45565,1.90543 6.49284,-0.62811 z"
       style="fill:#e1cfa4" />
    <path
       id="path28"
       d="m 288.21713,629.95543 c -19.28188,-1.58189 -27.8396,-3.92342 -30.78868,-8.42429 -1.66009,-2.53361 -1.6437,-2.74872 0.42222,-5.54303 C 259.29958,614.02836 260,611.61667 260,608.58755 260,603.40544 261.70136,599 263.70267,599 c 1.41597,0 12.87629,2.14381 21.79733,4.07749 12.55421,2.72119 25.42045,-3.29997 25.47776,-11.92312 0.0305,-4.59024 -3.2012,-8.72716 -9.18708,-11.76044 -5.5675,-2.82127 -5.39396,-4.00046 0.728,-4.9466 2.18973,-0.33842 4.37881,-0.9975 4.86463,-1.46463 1.26915,-1.22031 -8.83225,-3.91227 -15.70897,-4.18634 -3.20411,-0.1277 -5.98715,-0.49349 -6.18454,-0.81286 -0.19738,-0.31937 0.045,-12.93381 0.5386,-28.03209 0.77446,-23.68869 1.304,-29.64451 3.86328,-43.45141 5.25827,-28.36754 10.50948,-64.01222 9.7297,-66.04429 -0.28817,-0.75094 -2.25717,-2.24958 -4.37557,-3.3303 C 283.71567,421.24316 277,407.18365 277,388.92708 v -9.70992 l 4.02024,-1.60858 c 2.21113,-0.88472 5.47363,-1.62453 7.25,-1.64402 1.77637,-0.0195 4.35476,-0.67854 5.72976,-1.46456 1.375,-0.78602 4.1088,-1.44508 6.07511,-1.46456 4.0574,-0.0402 23.07773,3.24839 31.54822,5.45467 6.41489,1.67086 7.78416,1.26959 6.95403,-2.03792 -1.02018,-4.0647 1.14396,-3.63189 5.60275,1.12052 5.78424,6.16513 7.72059,9.38655 9.41087,15.65647 2.77031,10.27615 -0.29184,21.55752 -7.65774,28.21217 C 341.98572,425.0077 331.17189,431 328.6835,431 c -0.75544,0 -2.23077,0.94666 -3.27851,2.10369 -1.78995,1.97666 -1.92283,4.3593 -2.20033,39.45467 -0.29332,37.09578 -0.28063,37.36567 1.85794,39.50424 2.15205,2.15205 2.1749,2.15292 40.29534,1.52127 20.97813,-0.3476 88.09206,-1.08969 149.14206,-1.6491 211.18022,-1.93507 259.47615,-2.67009 261.0459,-3.97286 C 776.80457,506.9173 777,489.04601 777,374.98834 777,246.69541 776.9496,243.15933 775.08647,240.86078 l -1.91354,-2.36078 -72.83646,0.27519 c -84.59296,0.31961 -98.53919,0.74568 -101.39181,3.09761 -1.08548,0.89496 -2.8425,4.68979 -3.90449,8.43295 -1.20519,4.24789 -3.1367,8.1942 -5.13921,10.5 -4.30972,4.96247 -14.47257,11.95269 -19.40096,13.34439 -4.97042,1.40356 -17.79848,1.38546 -23.05942,-0.0325 -5.02676,-1.35488 -20.4586,-10.96414 -25.34345,-15.78112 -1.32158,-1.30322 -4.92158,-3.05074 -8,-3.88338 -3.07842,-0.83265 -7.28097,-1.96719 -9.33899,-2.5212 -2.05803,-0.55402 -6.78303,-3.09825 -10.5,-5.65385 l -6.75814,-4.64653 -12,-0.73413 c -6.6,-0.40377 -43.42767,-0.43336 -81.83926,-0.0658 l -69.83925,0.66837 -1.91075,2.36078 c -1.79192,2.21398 -1.90267,4.20392 -1.78092,32 0.0714,16.30157 0.41314,42.46422 0.75942,58.13922 0.34629,15.675 0.51548,28.79031 0.37598,29.14514 -0.1395,0.35483 -2.07484,0.18287 -4.30075,-0.38213 -2.86422,-0.72701 -5.06964,-2.27514 -7.54561,-5.29672 -1.92417,-2.3482 -4.67366,-4.56441 -6.10997,-4.9249 -1.43631,-0.36049 -4.5684,-2.25899 -6.96018,-4.21888 C 292.72539,345.35348 292,344.17573 292,341.26189 c 0,-4.84563 5.63202,-10.35759 13,-12.72287 8.34589,-2.6792 10,-4.01276 10,-8.06207 0,-4.47157 -1.91034,-4.55385 -8.51283,-0.36668 -3.97065,2.51812 -5.24544,2.89728 -6.69578,1.99153 C 298.29118,321.1649 298,321.31191 298,323.00622 c 0,2.17602 -5.25111,5.98365 -8.26087,5.99004 -1.13531,0.002 -2.68799,-1.88665 -4.37064,-5.3175 -1.86236,-3.79728 -3.88648,-6.12894 -7.06769,-8.14152 -7.46259,-4.72119 -8.11488,-9.98626 -3.34962,-27.03724 0.46113,-1.65 2.00356,-7.275 3.42761,-12.5 3.59783,-13.20076 8.74355,-23.39382 12.62049,-24.9997 6.27678,-2.59993 14.76161,1.69381 18.27827,9.2497 1.21591,2.6125 2.49463,4.75 2.8416,4.75 1.03193,0 1.88059,-5.79786 1.88459,-12.875 0.003,-4.80162 0.54002,-7.50454 1.95226,-9.82067 3.89659,-6.39059 -0.81989,-6.01347 84.49351,-6.75584 42.87224,-0.37306 79.2344,-0.93527 80.80482,-1.24936 2.14905,-0.42981 2.68578,-0.97028 2.16994,-2.18509 -1.43512,-3.37976 -1.59159,-11.60283 -0.25358,-13.32631 1.22101,-1.57277 1.81047,-1.34984 7.2352,2.73626 7.68274,5.78692 13.48033,8.53756 18.40904,8.73411 7.08183,0.2824 8.81408,-3.14466 5.18507,-10.2581 -1.1,-2.15618 -2,-4.33583 -2,-4.84367 0,-0.50783 3.0375,-1.12236 6.75,-1.36561 6.3486,-0.41598 6.97915,-0.25937 10.60334,2.6335 5.06862,4.04582 6.38689,6.82417 8.21674,17.31733 0.84001,4.81696 2.12434,9.65819 2.85408,10.75828 1.21375,1.82977 9.89646,5.39644 16.94851,6.96208 4.25722,0.94516 17.385,-1.28005 23.3062,-3.95049 3.68289,-1.66096 5.65861,-3.29984 6.83964,-5.67353 2.42113,-4.86612 7.85635,-12.83371 8.75624,-12.83596 0.42611,-10e-4 1.22701,1.18759 1.77976,2.64144 l 1.00501,2.64338 87.24521,-0.49869 c 47.98487,-0.27428 88.24363,-0.12935 89.46392,0.32206 1.22029,0.45142 3.0475,2.18359 4.06047,3.84928 1.75552,2.88673 1.87163,9.1905 2.47985,134.63541 0.70543,145.49398 1.08574,136.10486 -5.62539,138.87848 -2.5244,1.0433 -30.72209,1.56708 -136.18358,2.52968 -73.15,0.66767 -138.625,1.50264 -145.5,1.85549 L 482.5,516.5 V 527 c 0,5.775 0.33179,14.325 0.7373,19 l 0.73731,8.5 -4.73731,-0.27032 c -4.64068,-0.26481 -4.88663,-0.12562 -12.05925,6.82459 -11.07914,10.73561 -10.08957,14.68459 3.22693,12.8775 3.19346,-0.43336 6.43376,-0.54715 7.20066,-0.25286 1.82126,0.69888 1.77812,2.75771 -0.0903,4.30833 -0.81654,0.67767 -2.44886,3.16283 -3.62738,5.52258 l -2.14275,4.29044 3.36311,4.18495 c 3.34741,4.16539 7.34304,6.50208 13.75932,8.04659 3.83976,0.9243 12.78767,-1.15438 22.88423,-5.31619 l 6.25189,-2.57704 1.2053,2.18072 c 0.66292,1.19939 1.18284,4.81853 1.15538,8.04252 -0.0413,4.84586 0.35416,6.26591 2.28155,8.1933 1.81569,1.81569 2.14363,2.84179 1.48235,4.63819 -1.2692,3.44779 -5.72499,5.57582 -17.76754,8.48555 -10.26639,2.48056 -12.47543,2.63972 -40.36083,2.90791 -16.225,0.15604 -32.425,-0.15343 -36,-0.68772 -13.05468,-1.95106 -55.27299,-1.36298 -70,0.97506 -3.575,0.56756 -10.03818,1.12371 -14.36262,1.2359 -4.32444,0.11218 -9.94944,0.54536 -12.5,0.96261 -7.25148,1.18628 -34.65633,1.72487 -44.92025,0.88282 z M 396,597.87937 c 16.76984,-1.44341 17.99748,-1.73076 18.01682,-4.21727 0.009,-1.18915 1.60497,-5.9871 3.54603,-10.6621 4.18889,-10.08882 5.07234,-16.84803 3.529,-27 -1.38143,-9.08691 -8.03431,-37.17815 -9.07381,-38.31337 -0.99506,-1.08669 -52.23956,-0.86511 -53.33529,0.23062 -1.83501,1.83501 -7.71852,32.80877 -8.2786,43.58275 -0.52394,10.07894 -0.35547,11.62173 2.01201,18.42515 1.42111,4.08384 2.58384,9.55594 2.58384,12.16023 v 4.73508 l 8.25,0.60345 c 7.48992,0.54785 12.72789,0.87459 19.75,1.23197 1.375,0.07 7.225,-0.27945 13,-0.77651 z M 266.74589,370.06892 c -9.85038,-7.92422 -15.18569,-13.36862 -17.14314,-17.49363 -2.10567,-4.43737 -3.0064,-11.44353 -1.86003,-14.46785 0.86268,-2.27592 1.5564,-1.73964 14.22906,11 l 13.32216,13.39256 0.46588,6.75 c 0.30069,4.35675 0.0923,6.75 -0.58765,6.75 -0.57943,0 -4.37126,-2.66898 -8.42628,-5.93108 z m 36.32922,-135.37536 c -1.88369,-0.65646 -3.58298,-1.67893 -3.7762,-2.27217 -0.19322,-0.59323 5.69025,-4.08835 13.07439,-7.76692 7.38414,-3.67858 13.70678,-7.42078 14.05032,-8.31601 0.90598,-2.36096 -1.64833,-4.68978 -9.7554,-8.89417 -19.74934,-10.24218 -30.26305,-17.99373 -40.56485,-29.90768 -14.88478,-17.21414 -23.38783,-38.34183 -23.53457,-58.47683 l -0.0688,-9.44021 5,-1.81212 c 2.75,-0.99667 7.7,-2.30061 11,-2.89765 3.3,-0.59704 7.8,-1.60257 10,-2.23451 2.2,-0.63194 7.6,-1.24011 12,-1.35149 4.4,-0.11139 11.825,-0.46449 16.5,-0.78467 11.32923,-0.775922 11.72818,-0.78915 17.5,-0.580266 2.75,0.09953 7.25,0.0088 10,-0.201535 2.75,-0.210367 14.45,0.248101 26,1.018811 11.55,0.77072 23.925,1.53623 27.5,1.70114 3.575,0.16491 9.875,0.75005 14,1.30032 4.125,0.55026 11.775,1.51188 17,2.13692 13.5652,1.62274 17.9435,3.0122 18.67494,5.92648 1.28458,5.11818 -0.47745,23.58527 -3.09701,32.45838 -5.93061,20.08848 -11.79657,29.25449 -35.91302,56.11679 -3.26944,3.64171 -5.53152,6.99064 -5.14469,7.61655 0.48845,0.79032 4.57758,0.91108 13.97964,0.41282 7.30909,-0.38734 15.35787,-0.39404 17.88619,-0.0149 l 4.59694,0.68936 -4.44997,3.85142 c -2.44749,2.11829 -5.76215,4.13963 -7.36592,4.49188 -1.60376,0.35224 -3.95089,1.7421 -5.21583,3.08857 -1.48886,1.58482 -3.40215,2.44813 -5.42558,2.44813 -1.71913,0 -3.55319,0.40637 -4.07569,0.90305 -0.5225,0.49667 -2.975,1.12469 -5.45,1.39559 -2.475,0.2709 -7.65,1.47844 -11.5,2.68343 -8.69411,2.72111 -10.27083,2.86636 -41,3.77704 -21.41988,0.63479 -25.35408,0.9915 -27.47251,2.49089 -2.86731,2.02944 -9.81069,2.23541 -14.95238,0.44356 z m 129.96265,-3.5752 -3.46224,-0.61836 2.75929,-1.25 c 3.56499,-1.61499 9.1646,-1.56826 14.00461,0.11688 l 3.83941,1.33676 -4.72899,0.64818 c -5.23666,0.71776 -7.30379,0.67888 -12.41208,-0.23346 z"
       style="fill:#d6bc84" />
    <path
       id="path26"
       d="m 284.3756,628.00184 c -16.79888,-1.44875 -24.44495,-5.05905 -22.35516,-10.55561 0.50839,-1.33717 0.50102,-3.62801 -0.0175,-5.43598 -1.20217,-4.19173 -0.29304,-6.32528 2.38497,-5.59704 1.16165,0.31589 8.86209,1.65822 17.11209,2.98296 18.54337,2.97759 25.10347,2.82477 32.64764,-0.76055 6.79272,-3.22821 7.38007,-3.87435 8.85833,-9.74506 C 324.30937,593.71431 322.89453,586 320.64179,586 c -0.70461,0 -2.19385,-1.0125 -3.30941,-2.25 -1.11556,-1.2375 -2.88421,-2.78604 -3.93034,-3.44119 -3.54067,-2.21742 2.4914,-1.53881 7.3868,0.83102 3.67243,1.77779 4.5692,1.90468 5.30041,0.75 1.76719,-2.79062 0.90048,-5.66028 -2.49075,-8.2469 -3.97074,-3.02863 -12.40545,-7.63921 -13.99744,-7.65127 -0.60558,-0.005 -4.61151,-2.39561 -8.90205,-5.31337 -6.56374,-4.46364 -8.18942,-6.14339 -10.25,-10.59096 -2.19361,-4.73467 -2.44788,-6.60522 -2.43819,-17.93663 0.0154,-18.04478 1.67904,-22.88907 11.89952,-34.6507 5.18221,-5.96364 6.09466,-7.59221 6.16307,-11 0.0442,-2.2 0.63528,-5.8 1.31359,-8 0.81867,-2.65521 0.94549,-5.32193 0.37722,-7.932 -0.56599,-2.59959 -0.46042,-4.88724 0.31154,-6.75091 0.91408,-2.20678 0.88846,-3.15528 -0.118,-4.36799 -0.7071,-0.852 -1.39868,-4.24128 -1.53685,-7.53173 -0.13817,-3.29044 -0.77839,-9.10809 -1.42272,-12.9281 -1.12843,-6.69006 -1.33493,-7.04741 -5.61559,-9.71737 -9.5475,-5.95503 -12.34925,-8.35885 -14.98528,-12.8569 -4.90235,-8.36522 -8.08451,-23.63631 -5.14732,-24.70176 1.95469,-0.70906 7.78814,2.03587 10.46509,4.92435 1.34955,1.45618 2.79112,2.22938 3.24595,1.74099 0.45002,-0.48322 2.09121,-4.17787 3.6471,-8.21034 1.55589,-4.03247 3.5591,-7.72256 4.45158,-8.2002 1.74895,-0.93601 18.97691,1.18907 24.94028,3.0764 1.925,0.60924 5.87614,1.69256 8.78031,2.4074 4.99475,1.2294 5.3598,1.18621 6.75,-0.79858 0.80833,-1.15405 1.46969,-2.72824 1.46969,-3.49821 0,-3.14071 2.95721,1.18466 4.56617,6.67871 1.17616,4.01618 1.49599,7.65448 1.09829,12.49375 -1.02598,12.48432 -5.75538,18.54078 -19.2782,24.68757 -4.78657,2.17574 -6.28869,3.39832 -6.91965,5.63196 -0.44324,1.56913 -0.90881,18.37796 -1.0346,37.35296 -0.26464,39.9215 -0.15157,37 -1.43201,37 -0.6332,0 -1.04287,-8.16126 -1.11688,-22.25 -0.0643,-12.2375 -0.44567,-25.175 -0.84752,-28.75 -0.47668,-4.24075 -0.78169,2.53702 -0.87754,19.5 -0.16092,28.47974 0.33804,32.14995 5.00524,36.81715 l 2.97476,2.97476 52.18097,-0.64179 C 406.01856,514.29714 454.475,513.7796 485,513.50003 c 30.525,-0.27957 71.025,-0.73041 90,-1.00187 18.975,-0.27146 68.7,-0.76905 110.5,-1.10576 41.8,-0.3367 79.70809,-0.91833 84.2402,-1.29249 5.70548,-0.47104 7.92056,-0.36034 7.20109,0.35989 -1.10382,1.10499 -36.59641,1.70937 -200.74405,3.41834 -81.38298,0.84729 -92.58812,1.14795 -94.71482,2.54142 -1.32663,0.86924 -3.80444,1.58044 -5.50625,1.58044 -1.80816,0 -2.83733,0.41563 -2.47617,1 0.33992,0.55 -0.0113,1 -0.78047,1 -0.76917,0 -1.90122,1.10336 -2.51566,2.4519 -0.61444,1.34855 -2.48667,3.1601 -4.16052,4.02568 -1.67384,0.86558 -3.04335,1.94943 -3.04335,2.40855 0,0.45913 -1.05554,2.39021 -2.34565,4.29129 -1.29011,1.90108 -2.67649,4.77638 -3.08083,6.38955 -1.70904,6.81833 -4.79298,12.33952 -7.37275,13.19944 -3.74173,1.24724 -6.58175,11.60762 -6.54465,23.87485 0.0237,7.82499 0.3384,9.53631 2.18576,11.88486 1.18697,1.50898 2.15812,3.31777 2.15812,4.01953 0,1.77887 8.33778,5.6457 10.43672,4.84026 1.21413,-0.4659 2.584,0.39671 4.69284,2.9551 4.44475,5.39225 10.82311,7.9598 19.87044,7.99867 8.24222,0.0354 20.37312,-2.76092 29.51351,-6.80324 6.41227,-2.8358 7.17923,-2.27004 6.09704,4.49759 -0.39794,2.48859 -0.16744,4.70263 0.62102,5.96516 0.92187,1.47616 0.96618,2.47013 0.16735,3.75427 -2.7354,4.39719 -23.33561,9.22802 -39.40505,9.24064 -9.74212,0.008 -29.83885,-2.36766 -42.49387,-5.02251 -5.5,-1.15383 -12.95223,-2.45799 -16.5605,-2.89813 -3.60828,-0.44015 -7.58095,-1.34638 -8.82815,-2.01386 -1.2472,-0.66749 -2.93763,-0.9565 -3.75652,-0.64227 -0.81889,0.31424 -4.3444,-0.14594 -7.83447,-1.02262 -4.98713,-1.25272 -7.38117,-1.37177 -11.18297,-0.55609 -5.17982,1.11133 -6.75037,0.47694 -6.14563,-2.4824 0.27643,-1.3527 1.11372,-1.77844 3.08664,-1.56949 2.74605,0.29083 16.63795,-3.99784 24.55813,-7.58153 4.17277,-1.88808 4.34716,-2.14613 4.6181,-6.83369 0.15487,-2.67933 1.48492,-7.79651 2.95566,-11.37151 1.47074,-3.575 3.11173,-8.4336 3.64664,-10.79688 1.39058,-6.1438 -0.4534,-19.51581 -5.40608,-39.20312 L 412.5,516.5 385.88579,516.23392 c -20.5445,-0.20539 -26.8378,0.0227 -27.5946,1 -1.17903,1.52262 -6.84954,28.05323 -8.39253,39.26608 -1.33411,9.695 -0.7982,15.91513 2.11087,24.5 1.65029,4.87012 2.07538,7.93103 1.69526,12.207 l -0.50734,5.707 8.15128,2.6345 c 4.4832,1.44897 8.70793,3.09357 9.38828,3.65466 0.68036,0.5611 2.34028,0.74327 3.68872,0.40484 2.74545,-0.68907 4.40286,0.96341 2.68714,2.67913 -0.61208,0.61208 -1.11287,1.91131 -1.11287,2.88719 0,2.10646 -5.25788,5.07672 -9.5,5.3667 -1.65,0.11279 -7.275,1.39769 -12.5,2.85533 -27.16442,7.57817 -49.51055,10.34012 -69.6244,8.60549 z M 778.96397,502.25 c -0.59043,-12.29101 -0.70333,-98.51376 -0.17644,-134.75 l 0.71247,-49 0.61279,32.5 c 1.05812,56.11814 0.98697,152 -0.11279,152 -0.55,0 -1.01621,-0.3375 -1.03603,-0.75 z M 263.22592,366.47119 c -9.19481,-7.54475 -13.42176,-13.04947 -14.68642,-19.12599 -0.36113,-1.73514 -0.24058,-3.41191 0.26787,-3.72615 1.50288,-0.92883 21.92411,19.45004 23.64789,23.59883 1.69205,4.07242 1.98985,6.78212 0.74538,6.78212 -0.43964,0 -4.92827,-3.38796 -9.97472,-7.52881 z m 52.49228,-5.19051 c -1.87018,-0.28214 -3.62727,-1.69726 -5.36176,-4.31826 -1.41899,-2.14422 -3.45925,-4.17766 -4.53391,-4.51875 -1.07467,-0.34108 -3.49937,-1.97706 -5.38824,-3.6355 -4.07038,-3.57385 -4.51293,-7.52674 -1.41206,-12.61274 1.96411,-3.22152 10.47021,-8.16372 14.08848,-8.18566 1.94959,-0.0118 2.86024,6.1171 2.89591,19.49023 0.0232,8.68406 0.73248,11.82404 2.60518,11.53259 0.48851,-0.076 1.0337,0.56054 1.21152,1.41459 0.17783,0.85405 -0.0472,1.4854 -0.5,1.40299 -0.45282,-0.0824 -2.07513,-0.33868 -3.60512,-0.56949 z m -25.44976,-34.59012 c -0.48279,-0.65481 -2.5934,-4.92288 -4.69026,-9.48461 l -3.81247,-8.29405 0.66802,-11.70595 c 1.3365,-23.41958 3.53005,-33.22214 8.41116,-37.58784 1.84154,-1.64709 2.4848,-1.72419 5.15554,-0.61793 6.84321,2.83455 9.96974,11.79332 9.9877,28.61883 0.007,6.11546 0.71322,15.11546 1.57043,20 l 1.55856,8.88099 -3.30237,2.77637 c -4.18147,3.51544 -5.98858,3.15513 -7.28494,-1.45248 -1.67697,-5.96036 -2.5792,-5.58979 -1.91283,0.78565 0.46362,4.43568 0.27356,6.21857 -0.74767,7.01376 -2.38614,1.858 -4.69368,2.2977 -5.60087,1.06726 z M 779.25218,313.5 c 0.0111,-2.2 0.21589,-2.98225 0.45508,-1.73834 0.23919,1.24391 0.23011,3.04391 -0.0202,4 -0.25029,0.95609 -0.446,-0.0617 -0.4349,-2.26166 z m 0.076,-11 c 0.004,-3.85 0.18518,-5.30246 0.40166,-3.2277 0.21647,2.07477 0.21284,5.22477 -0.008,7 -0.22091,1.77524 -0.39803,0.0777 -0.39359,-3.7723 z m -0.24919,-18.08333 c 0.048,-1.16495 0.28494,-1.4019 0.60416,-0.60417 0.28887,0.72187 0.25335,1.58438 -0.0789,1.91667 -0.33229,0.33229 -0.56864,-0.25834 -0.52522,-1.3125 z M 779.232,275 c 0,-1.925 0.2058,-2.7125 0.45733,-1.75 0.25152,0.9625 0.25152,2.5375 0,3.5 -0.25153,0.9625 -0.45733,0.175 -0.45733,-1.75 z m -228.00948,-4.99903 c -6.99218,-1.48109 -14.29495,-6.01419 -21.5363,-13.36836 l -6.81379,-6.91995 -9.51143,-0.87434 c -9.52531,-0.87561 -12.00381,-1.65207 -20.32062,-6.36599 l -4.45962,-2.52768 -82.04038,0.27768 c -45.12221,0.15272 -82.76461,0.63904 -83.64979,1.08071 -0.88517,0.44167 -2.20358,1.91326 -2.92979,3.2702 -1.64809,3.0795 -3.3171,1.69454 -2.39334,-1.98602 1.46184,-5.82443 -1.96677,-5.57144 86.21036,-6.36122 44.58057,-0.3993 81.36397,-1.0344 81.74089,-1.41133 0.37691,-0.37694 -0.0356,-1.71456 -0.91671,-2.97251 C 483.04572,229.62026 482.33715,223 483.65561,223 c 0.36058,0 2.2373,1.20641 4.17048,2.68092 8.011,6.11029 18.88572,8.70991 26.02469,6.22125 2.66909,-0.93044 3.14922,-1.5979 3.14922,-4.37787 0,-1.80403 -0.675,-4.89555 -1.5,-6.87006 -0.825,-1.9745 -1.5,-3.72233 -1.5,-3.88405 0,-0.16173 2.1375,-0.28868 4.75,-0.28212 5.69007,0.0143 11.55661,3.27039 13.83682,7.67983 0.84609,1.63614 2.21539,6.85374 3.04291,11.59466 0.82751,4.74092 1.95844,9.46793 2.51318,10.50446 1.52529,2.85003 13.43079,7.76842 20.37368,8.41676 6.94857,0.64887 18.20061,-0.9985 23.81259,-3.4863 3.18747,-1.41301 4.52813,-3.03814 8,-9.69748 3.45927,-6.63518 4.51202,-7.9147 6.17082,-7.5 1.1,0.275 41.68024,0.33479 90.17832,0.13286 l 88.17831,-0.36714 2.57169,2.57169 c 2.13726,2.13726 2.57168,3.49847 2.57168,8.05812 0,3.01754 -0.45,5.76455 -1,6.10447 -0.60178,0.37192 -1,-0.94466 -1,-3.30612 0,-2.45577 -0.77554,-4.91011 -2.07258,-6.55902 L 773.85484,238 l -73.67742,0.0748 c -40.52258,0.0412 -80.08719,0.38842 -87.92135,0.77171 -16.47412,0.806 -16.58748,0.86644 -20.17604,10.75732 -2.62296,7.22948 -8.87052,13.84362 -16.82034,17.80728 -5.91241,2.94784 -16.80604,4.12156 -24.03717,2.58984 z M 779.232,267 c 0,-1.925 0.2058,-2.7125 0.45733,-1.75 0.25152,0.9625 0.25152,2.5375 0,3.5 -0.25153,0.9625 -0.45733,0.175 -0.45733,-1.75 z M 320.21067,221.96267 c 3.69087,-2.21451 6.99216,-4.48184 7.3362,-5.03851 1.3559,-2.19389 -2.8196,-5.80983 -12.698,-10.99632 -27.29928,-14.33304 -41.53908,-28.01047 -52.3349,-50.26801 -3.71853,-7.66642 -7.44055,-19.1657 -7.49919,-23.16892 -0.0194,-1.32278 13.57426,-4.34396 25.79197,-5.73226 12.01125,-1.36484 85.15412,-1.42472 90.69325,-0.0742 2.25116,0.54885 5.31163,0.61806 7,0.15831 1.95186,-0.53149 5.08889,-0.28409 8.97883,0.70812 3.28836,0.83876 11.38836,1.72695 18,1.97374 8.46399,0.31593 14.01084,1.0791 18.74506,2.57907 3.69815,1.1717 7.52315,1.82366 8.5,1.44881 0.97686,-0.37486 1.98908,-0.64386 2.24938,-0.59777 1.03773,0.18371 -0.30215,7.97733 -2.67256,15.54531 -5.06608,16.17436 -13.31779,28.89543 -32.11353,49.50712 -4.57205,5.01378 -8.12639,9.65077 -7.89853,10.30442 0.29329,0.84136 3.52431,1.10866 11.06282,0.91523 5.85669,-0.15028 10.64853,-0.0745 10.64853,0.16847 0,0.24293 -2.97202,1.43073 -6.6045,2.63953 -6.72392,2.23758 -14.83215,2.78818 -21.65396,1.47045 -2.57908,-0.49819 -6.34462,-0.0784 -12,1.33794 -7.02137,1.75837 -18.8413,3.5638 -36.24154,5.5357 -2.2,0.24932 -8.05,1.61454 -13,3.03383 -4.95,1.41929 -9.45,2.57959 -10,2.57845 -0.55,-0.001 2.0198,-1.81395 5.71067,-4.02847 z"
       style="fill:#cbab68" />
    <path
       id="path24"
       d="m 278.02794,625.91733 c -3.00964,-0.53064 -7.05964,-1.74162 -9,-2.69106 -3.01466,-1.47512 -3.57432,-2.29236 -3.8467,-5.61716 l -0.31877,-3.89089 4.31877,0.62595 c 13.92792,2.01868 25.37487,2.81713 35.66403,2.48763 10.90667,-0.34928 12.03984,-0.58213 17.65473,-3.62787 10.97357,-5.95249 21.84518,-14.42553 24,-18.70496 2.79907,-5.5589 4.76409,-6.97682 5.80414,-4.18816 0.46004,1.23349 0.35306,3.14614 -0.25,4.46971 -1.60034,3.51237 -1.27003,6.03357 0.94586,7.21948 3.39466,1.81677 2.35306,4.66868 -3.25,8.89853 -6.91222,5.21817 -18.33671,10.55875 -28.25,13.20597 -9.15293,2.44417 -34.01169,3.48081 -43.47206,1.81283 z M 461,621.10141 c -11.40747,-2.51389 -36.42,-9.75012 -39.87162,-11.53502 -4.34164,-2.24515 -5.73393,-4.3671 -4.3351,-6.60699 0.64707,-1.03612 0.90361,-3.22495 0.5722,-4.88201 -0.33042,-1.6521 -0.31755,-4.13222 0.0286,-5.51139 0.56283,-2.2425 0.90822,-2.40156 3.26723,-1.50467 1.45082,0.5516 4.84687,2.8524 7.54677,5.11288 3.55202,2.97392 9.04367,5.73392 19.86755,9.98505 16.92925,6.64905 24.49131,8.84074 30.50348,8.84074 6.66477,0 22.60109,-2.98524 35.17089,-6.58831 2.03141,-0.58229 2.25,-0.30064 2.25,2.8991 0,7.58075 -8.77301,10.77869 -31,11.30015 -12.46127,0.29235 -17.1664,-0.004 -24,-1.50953 z M 345.29903,576.4969 c -2.63419,-1.84507 -3.8853,-5.63042 -5.26706,-15.93612 -0.60979,-4.54801 -1.75006,-8.69678 -2.6695,-9.71275 -1.00481,-1.1103 -1.3296,-2.4419 -0.8685,-3.56078 0.40509,-0.98299 1.08281,-3.13725 1.50603,-4.78725 0.42322,-1.65 1.0945,-3.7875 1.49174,-4.75 0.55364,-1.34148 0.23038,-1.75 -1.38475,-1.75 -2.64715,0 -2.68518,-1.42181 -0.10699,-4 2.18022,-2.18022 2.71757,-7.88243 0.91287,-9.68713 -0.78285,-0.78285 -0.71287,-1.32489 0.25,-1.93657 0.8516,-0.541 -1.5678,-1.22751 -6.66287,-1.89062 l -8,-1.04117 15.87093,-0.76799 c 8.72901,-0.4224 16.00093,-0.63491 16.15983,-0.47226 0.15889,0.16266 -1.71549,9.97074 -4.1653,21.79574 -3.75804,18.13971 -4.40819,22.94583 -4.15983,30.75077 0.1619,5.08793 0.057,9.25043 -0.23312,9.25 -0.29013,-4.2e-4 -1.49319,-0.67717 -2.67348,-1.50387 z m 78.48467,-4.90219 c 0.63692,-7.68037 -1.23211,-19.27605 -6.25123,-38.78349 -2.87551,-11.17599 -3.9204,-16.79639 -3.16319,-17.01454 0.6219,-0.17916 6.30572,-0.0651 12.63072,0.25343 6.325,0.31855 10.32965,0.66259 8.89922,0.76453 -3.91051,0.27871 -8.88506,2.23002 -9.00726,3.53319 -0.0594,0.63369 0.0419,8.80217 0.22514,18.15217 0.6107,31.15987 0.58452,31.70206 -1.70476,35.31773 l -2.08623,3.29498 z M 298,427.37556 c -4.86572,-2.74644 -11.73528,-8.97361 -10.86233,-9.84656 0.29572,-0.29572 1.97841,0.18106 3.73931,1.05952 2.85769,1.4256 3.60027,1.43893 6.91233,0.12412 2.04088,-0.81018 5.73569,-1.77139 8.21069,-2.13602 8.96277,-1.32045 18.56833,-3.87229 21.72931,-5.77269 1.77612,-1.06781 6.20536,-5.17303 9.84277,-9.1227 l 6.61345,-7.18123 -0.51162,6.40087 c -0.77372,9.68012 -4.75607,16.74604 -11.70244,20.76382 -3.00931,1.74057 -6.96517,4.10307 -8.79081,5.25 -3.68016,2.31199 -6.22822,2.63775 -7.86096,1.00501 -0.77372,-0.77372 -2.4012,-0.63183 -5.73494,0.5 -5.93669,2.01556 -6.20724,1.99118 -11.58476,-1.04414 z M 262.02568,363.95319 C 258.16155,360.62744 255,357.45078 255,356.89395 c 0,-1.26086 13.71974,9.93332 14.42411,11.76888 0.83836,2.18472 -0.031,1.63132 -7.39843,-4.70964 z m 51.36968,-4.73658 c -0.60755,-0.39413 -1.73255,-1.9248 -2.5,-3.40149 -0.76745,-1.47668 -2.97036,-3.74121 -4.89536,-5.0323 -5.44765,-3.6537 -5.27468,-6.93061 0.65309,-12.3729 2.64183,-2.42545 5.13328,-4.40992 5.53657,-4.40992 1.5806,0 2.8715,8.42894 2.59791,16.96301 -0.2006,6.2575 -0.62163,8.7535 -1.39221,8.2536 z m -21.28344,-35.42637 c -3.4766,-9.16065 -5.00679,-43.35008 -2.28437,-51.04024 1.76195,-4.97707 4.36546,-4.92657 7.72487,0.14985 2.36478,3.57342 2.69747,5.43581 3.97465,22.25 0.76662,10.09258 1.67543,19.72536 2.01959,21.40616 0.43142,2.10696 0.16079,3.44189 -0.87143,4.29856 -1.78622,1.48244 -1.96906,1.21772 -4.04373,-5.85457 -3.07095,-10.46849 -5.4261,-11.02056 -3.64245,-0.85383 0.61309,3.4946 1.33799,7.11392 1.61089,8.04293 0.30365,1.0337 -0.30217,2.11636 -1.56133,2.79024 -1.74754,0.93525 -2.18846,0.75611 -2.92669,-1.1891 z M 546.5,263.20079 c -7.12813,-3.46781 -8.40853,-4.79441 -12.78919,-13.25069 -4.39764,-8.48906 -6.72475,-9.67699 -14.4821,-7.39277 -8.12931,2.39375 -14.75234,2.25771 -20.72871,-0.42578 -6.697,-3.00706 -15.49169,-4.02683 -37,-4.29026 l -18,-0.22045 22.21566,-0.56042 c 18.74563,-0.47288 22.47133,-0.81631 23.85255,-2.19869 1.5164,-1.51767 2.03238,-1.49927 7.00936,0.25 8.19647,2.88083 16.47281,2.35327 20.39411,-1.29997 1.86367,-1.73628 2.03191,-2.65788 1.44009,-7.88885 -0.79673,-7.04218 0.11038,-7.45933 7.19382,-3.30816 5.50211,3.22445 6.69632,5.51237 8.75611,16.77527 0.89421,4.88952 2.07833,9.43526 2.63139,10.10166 0.55306,0.66639 4.26837,2.74088 8.25624,4.60997 6.79176,3.18326 7.88358,3.39322 17.25067,3.31724 7.24459,-0.0588 11.72347,-0.65025 16.25486,-2.14665 3.44017,-1.13605 6.47064,-1.71639 6.73438,-1.28964 0.86792,1.40431 -4.88825,6.26785 -10.48924,8.86265 -4.17935,1.93618 -7.54101,2.63523 -14,2.91126 -7.75252,0.33131 -9.02763,0.10656 -14.5,-2.55572 z M 321,240.16601 c 0,-1.88225 3.48019,-2.16297 24.33179,-1.96263 L 366.5,238.40675 345,238.95338 c -11.825,0.30064 -22.0625,0.91068 -22.75,1.35564 -0.6912,0.44735 -1.25,0.38342 -1.25,-0.14301 z m 53.29571,-1.91014 c 4.28763,-0.1879 11.03763,-0.18676 15,0.003 3.96236,0.1893 0.45429,0.34304 -7.79571,0.34164 -8.25,-0.001 -11.49193,-0.15629 -7.20429,-0.34419 z M 415,238.04186 c 1.34295,-0.90536 17.92924,-1.56691 16.91667,-0.67473 -0.22917,0.20192 -4.46667,0.66386 -9.41667,1.02655 -6.19243,0.45371 -8.53207,0.34396 -7.5,-0.35182 z m 179,0.19716 c 0,-0.54677 0.5625,-1.38673 1.25,-1.86658 0.69373,-0.48419 22.61072,-0.64993 49.25,-0.37244 l 48,0.5 -46.5,0.64406 c -25.575,0.35424 -47.7375,0.9692 -49.25,1.36658 -1.64037,0.43098 -2.75,0.32138 -2.75,-0.27162 z m 177.5,-1.70291 c -2.99113,-1.36961 -2.99244,-1.37391 -0.44113,-1.45489 1.40738,-0.0447 3.43238,0.57947 4.5,1.38698 2.55914,1.93563 0.10959,1.97662 -4.05887,0.0679 z m -60.73209,-0.26084 c 1.79735,-0.22256 4.49735,-0.21797 6,0.0102 1.50265,0.22818 0.0321,0.41027 -3.26791,0.40466 -3.3,-0.006 -4.52944,-0.1923 -2.73209,-0.41486 z M 748.75,235.2766 c 1.7875,-0.22182 4.7125,-0.22182 6.5,0 1.7875,0.22183 0.325,0.40333 -3.25,0.40333 -3.575,0 -5.0375,-0.1815 -3.25,-0.40333 z M 326.96429,212.54656 C 326.15893,211.74716 319.65,207.87902 312.5,203.95068 297.18355,195.53555 286.90893,187.97969 280.14948,180.16044 275.25816,174.50222 269,165.32153 269,163.80422 269,163.3619 270.35611,163 272.01357,163 c 1.65746,0 3.86741,-0.53323 4.91099,-1.18496 1.43834,-0.89826 2.82624,-0.91011 5.73643,-0.049 2.5805,0.76358 6.13376,0.85714 10.83901,0.28541 3.85,-0.46781 10.99535,-0.92017 15.87855,-1.00524 4.8832,-0.0851 10.7332,-0.47322 13,-0.86256 4.72871,-0.8122 29.70719,-0.67592 46.62145,0.25436 6.325,0.34787 16.225,0.79113 22,0.98501 5.775,0.19389 12.3,0.8221 14.5,1.39603 2.2,0.57394 7.0375,1.35186 10.75,1.72872 3.7125,0.37686 6.75,0.99675 6.75,1.37754 0,0.38078 -1.59442,3.34013 -3.54316,6.57633 -3.9697,6.59233 -11.0581,15.40747 -21.19194,26.35429 l -6.80966,7.35596 -17.97762,2.85125 C 359.67286,211.25259 334.92858,214 329.01439,214 c -0.3222,0 -1.24475,-0.65405 -2.0501,-1.45344 z"
       style="fill:#b58833" />
    <path
       id="path22"
       d="M 279.3334,624.5677 C 271.81544,622.85107 269,621.42896 269,619.34818 c 0,-1.18522 0.56373,-1.40229 2.25,-0.86639 1.2375,0.39328 10.61634,0.94838 20.84187,1.23356 22.84856,0.63722 24.65212,0.19959 42.23519,-10.24832 12.62308,-7.50067 17.00886,-8.83173 14.66409,-4.45049 -2.45369,4.58476 -21.46922,15.73253 -31.49115,18.46155 -8.3925,2.28531 -30.20304,2.90798 -38.1666,1.08961 z M 467,620.49297 c -9.34732,-1.89692 -39.96028,-11.29707 -43.49673,-13.3563 -3.16976,-1.8457 -4.04407,-3.79454 -2.66284,-5.93547 0.66788,-1.03523 1.93594,-0.86116 6.24875,0.85777 2.97595,1.18612 13.96082,5.11059 24.41082,8.72105 18.87632,6.52175 19.06835,6.56391 29.5,6.47763 9.15286,-0.0757 18.67494,-1.34882 28.25,-3.77706 2.13542,-0.54155 2.75,-0.34369 2.75,0.88532 0,5.87097 -27.68634,9.64066 -45,6.12706 z M 300.54271,427.0691 c -0.84109,-1.36091 0.17431,-1.77051 11.07344,-4.46687 C 323.25928,419.72182 330,418.57239 330,419.46743 c 0,1.12122 -11.11612,5.78257 -13.78996,5.78257 -1.41027,0 -4.045,0.61875 -5.85496,1.375 -3.77552,1.57751 -8.96668,1.81246 -9.81237,0.4441 z m 9.10009,-75.42629 c -4.00298,-5.81214 -3.9917,-7.52896 0.067,-10.18829 2.09948,-1.37564 2.6913,-1.42959 3.40072,-0.31 0.79397,1.25302 1.30579,15.85548 0.55574,15.85548 -0.18358,0 -1.99412,-2.41073 -4.02342,-5.35719 z m -11.01925,-40.16809 c -1.05221,-3.33801 -2.65126,-6.102 -4.06675,-7.02946 -1.89171,-1.2395 -2.46465,-2.76043 -3.03059,-8.04508 C 290.67228,288.42623 291.67881,280 293.48526,280 c 2.0509,0 4.2369,6.79344 4.98761,15.5 0.37938,4.4 1.12096,10.86972 1.64796,14.37716 0.527,3.50744 0.79586,6.53948 0.59747,6.73787 -0.19839,0.19839 -1.14102,-2.11475 -2.09475,-5.14031 z m 252.67053,-49.8008 c -1.76326,-0.64566 -3.78826,-1.80265 -4.5,-2.5711 -1.08643,-1.17299 -0.97316,-1.26818 0.70592,-0.59327 1.1,0.44215 7.4,1.07089 14,1.39718 11.88376,0.58752 11.95454,0.60538 7.30718,1.84327 -5.7403,1.52901 -13.2184,1.49653 -17.5131,-0.0761 z M 504.5,240.06976 c 1.1,-0.51105 3.58737,-0.96082 5.52749,-0.99947 1.94013,-0.0387 4.41982,-0.6953 5.51044,-1.4592 2.46162,-1.72418 16.6018,-1.69595 17.17774,0.0343 0.25659,0.77085 -2.33234,1.33041 -7.91721,1.71118 -4.56415,0.31118 -11.44846,0.80802 -15.29846,1.10408 -4.69834,0.3613 -6.34238,0.23277 -5,-0.39089 z m -12.02699,-3.02609 c 0.32507,-0.52598 1.25163,-0.70283 2.05902,-0.39301 2.06711,0.79323 1.82352,1.34934 -0.59105,1.34934 -1.13246,0 -1.79305,-0.43035 -1.46797,-0.95633 z M 524.25,232.26779 c -4.21166,-0.37933 -4.25,-0.41813 -4.25,-4.30054 0,-3.79312 0.0817,-3.8867 2.56732,-2.94166 3.94582,1.5002 6.85755,3.16129 7.66737,4.37411 1.15534,1.73029 0.88832,3.61749 -0.48469,3.42559 -0.6875,-0.0961 -3.1625,-0.34696 -5.5,-0.5575 z M 313,203.10811 c -11.51391,-6.32107 -22.54455,-14.41245 -19,-13.9372 0.825,0.11062 3.525,-0.16931 6,-0.62207 6.65417,-1.21725 16.09191,-1.64369 39.5,-1.78479 22.82412,-0.13759 27.17345,0.56244 29.965,4.82287 1.57309,2.40085 1.51705,2.60437 -1.63814,5.94948 -1.80077,1.90917 -4.25297,3.4636 -5.464,3.4636 -1.20838,0 -4.37186,0.94378 -7.02995,2.09728 -4.10033,1.77937 -25.65833,6.93341 -28.81065,6.88799 -0.56224,-0.008 -6.64726,-3.10282 -13.52226,-6.87716 z"
       style="fill:#a8771b" />
  </g>
</svg>
